<svg width="1440" height="619" viewBox="0 0 1440 619" fill="none" xmlns="http://www.w3.org/2000/svg">
<path d="M0 537.485C0 386.266 0 235.046 0.418163 82.9394C5.25227 79.577 8.51048 75.7625 11.812 72.14C36.6344 44.9044 64.6481 22.5395 101.041 12.0766C111.155 9.16881 121.085 6.52013 131.671 7.61408C147.135 9.21213 162.293 8.28069 177.234 3.52241C186.281 0.641246 195.75 -0.180944 205.282 0.296276C223.702 1.21849 242.027 3.05197 260.352 5.15419C284.271 7.89822 304.251 18.7759 322.443 33.4621C329.772 39.3783 336.595 45.9884 340.563 54.8406C341.654 57.2742 343.525 59.0057 345.692 60.5382C360.46 70.9814 362.612 88.066 362.292 102.801C361.939 119.086 351.334 133.619 338.387 144.597C328.251 153.191 317.694 148.596 314.762 135.623C313.092 128.233 314.586 120.315 311.891 113.41C302.855 90.2625 290.953 70.2351 264.433 61.6986C238.725 53.4233 213.644 44.1096 186.03 44.3748C169.006 44.5382 151.426 43.1851 135.259 47.1776C116.851 51.7237 99.3183 60.09 80.4055 63.7152C78.3765 64.1041 76.4117 65.2362 74.6161 66.3414C61.7117 74.2846 49.3687 82.9574 39.1612 94.2597C37.1883 96.4442 34.5893 98.5176 35.8373 102.825C42.7868 103.965 48.9835 101.424 55.1228 98.477C63.415 94.4964 71.5726 90.1851 80.0713 86.6937C100.886 78.1426 122.804 73.1843 144.571 67.704C154.912 65.1004 165.141 62.3889 175.899 62.3646C199.706 62.3109 222.9 67.2567 246.136 71.383C254.586 72.8836 262.486 77.0827 269.276 83.0225C283.076 95.0943 286.892 111.164 287.254 128.091C287.772 152.359 280.962 175.907 278.547 199.902C276.937 215.885 279.44 231.918 289.069 244.824C302.454 262.765 320.222 276.519 341.817 283.468C354.035 287.4 367.337 288.073 380.19 289.952C382.416 290.277 384.902 289.517 387.156 288.875C398.292 285.701 409.46 282.611 420.473 279.057C426.722 277.041 433.611 275.531 438.023 270.287C449.641 256.476 455.142 240.272 455.671 222.37C455.779 218.705 454.149 215.585 452.149 212.589C446.657 204.363 440.785 196.426 434.372 188.876C428.764 182.274 424.617 174.785 424.031 166.128C423.474 157.905 423.569 149.144 431.972 144.212C443.672 137.347 456.337 134.616 470.105 136.134C493.267 138.687 515.007 146.98 537.388 152.5C565.074 159.329 592.447 163.152 619.949 155.052C641.676 148.654 662.484 139.431 682.971 129.615C695.709 123.513 708.476 116.364 722.903 115.63C749.719 114.265 774.015 104.044 798.564 95.1975C835.103 82.0307 872.465 73.8642 911.247 71.8849C933.466 70.7509 955.589 71.6495 977.805 73.1215C995.821 74.315 1012.9 77.4132 1029.13 85.1776C1045.77 93.1361 1049.96 101.345 1046.08 119.014C1045.59 121.254 1044.64 123.489 1043.46 125.469C1038.54 133.752 1033.36 141.887 1028.45 150.181C1026.05 154.252 1023.98 158.541 1026.07 163.482C1030.12 173.051 1045.86 183.043 1056.02 181.595C1077.49 178.535 1099.16 177.266 1120.26 171.06C1143.26 164.294 1164.72 156.055 1182.24 138.775C1191.72 129.432 1203.42 122.38 1216.66 118.337C1233.37 113.233 1249.76 107.185 1266 100.731C1278.12 95.9144 1290.58 92.5665 1303.63 90.9912C1330.44 87.7538 1357.06 84.8703 1384.09 90.1859C1398.19 92.9592 1409.58 98.2548 1417.17 110.606C1419.14 113.808 1421.47 116.786 1423.54 119.932C1430.9 131.142 1440.97 137.558 1454.78 137.444C1454.78 293.359 1454.78 449.274 1454.43 605.532C1453.43 605.197 1452.68 604.582 1452.13 603.829C1439.25 586.184 1415.31 578.038 1395.25 590.901C1392.9 592.409 1390.15 593.443 1387.45 594.263C1375.69 597.835 1363.91 601.989 1351.36 598.943C1341.45 596.536 1337.74 588.733 1341.84 579.47C1344.32 573.873 1347.55 568.696 1351.89 564.223C1355.74 560.248 1354.26 558.119 1349.17 557.531C1338.7 556.322 1328.9 558.01 1320.06 564.012C1313.55 568.432 1306.56 571.983 1298.73 573.193C1284.66 575.369 1270.52 577.175 1256.4 579.069C1255.27 579.22 1253.88 579.195 1252.93 578.682C1243.01 573.368 1232.04 570.066 1222.99 563.092C1213.99 556.164 1210.63 546.876 1213.64 536.359C1216.5 526.326 1220.1 523.925 1233.82 522.636C1252.25 520.904 1270.51 523.773 1288.77 525.223C1299.89 526.107 1309.22 524.837 1318.86 518.476C1332.19 509.678 1346.19 501.849 1359.51 492.941C1367.08 487.875 1375.46 486.462 1384.55 489.593C1393.25 492.59 1402.25 494.743 1411.06 497.436C1415.26 498.719 1417.33 497.483 1419.22 493.413C1423.87 483.387 1419.59 474.12 1417.78 464.577C1416.77 459.287 1413.77 456.419 1408.43 455.458C1395.75 453.176 1383.18 452.227 1370.47 455.718C1349.07 461.598 1327.14 465.116 1305.46 469.741C1280.25 475.12 1255.35 476.309 1230.18 471.567C1217.37 469.153 1204.24 470.385 1191.52 467.373C1182.13 465.153 1176.44 460.089 1177.84 452.325C1181.19 433.628 1186.75 415.771 1202.9 403.37C1208.51 399.063 1214.2 394.816 1219.46 390.109C1224.83 385.302 1225.72 379.526 1221.58 375.216C1214.68 368.037 1206.9 362.003 1196.78 359.65C1180.36 355.83 1164.13 356.173 1147.6 359.766C1118.86 366.013 1091.44 376.394 1063.38 384.769C1042.25 391.077 1022.94 400.18 1005.28 413.351C995.306 420.789 984.377 427.082 972.25 430.897C954.344 436.532 939.185 446.42 925.155 458.841C913.379 469.265 900.518 478.87 885.343 484.186C868.299 490.157 853.882 500.407 839.688 510.896C821.129 524.611 800.013 533.489 778.332 539.455C736.95 550.842 696.514 547.827 658.62 525.049C639.056 513.289 625.118 497.121 615.147 477.177C613.43 473.742 611.337 470.741 608.836 467.915C601.313 459.413 590.765 456.38 580.761 452.116C566.679 446.115 551.457 444.864 536.922 440.816C533.427 439.842 527.933 438.934 528.536 445.639C529.78 459.469 523.645 470.673 516.18 481.437C505.857 496.324 495.688 497.278 482.412 484.699C481.057 483.415 480.014 481.808 478.825 480.352C475.105 475.792 471.668 470.965 467.597 466.738C461.706 460.619 453.83 458.496 448.388 461.542C442.827 464.655 437.609 468.405 433.663 473.53C428.963 479.634 429.433 486.848 435.592 490.797C445.682 497.267 452.293 506.767 458.754 516.208C472.139 535.765 468.044 552.707 452.872 562.404C437.971 571.928 423.23 581.529 409.041 592.109C390.811 605.701 368.933 610.572 347.043 614.745C334.051 617.222 320.895 620.137 307.631 618.266C291.748 616.025 275.74 614.661 260.153 610.154C237.519 603.608 219.584 591.513 208.264 570.711C199.371 554.368 190.086 538.63 175.501 526.118C163.349 515.694 156.567 501.308 151.811 485.99C148.113 474.083 147.953 461.389 142.994 449.81C141.088 445.362 138.762 441.615 133.948 439.566C107.096 428.139 81.3968 433.999 59.201 449.168C38.9067 463.037 25.0633 483.936 13.8317 506.008C8.61505 516.259 6.37249 527.759 0 537.485ZM345.564 485.357C336.892 466.119 345.101 446.981 366.078 442.948C385.489 439.217 398.74 427.914 411.008 414.431C428.771 394.912 455.746 393.927 474.502 412.587C476.036 414.114 477.42 415.735 479.945 414.937C486.095 412.992 490.003 399.215 485.599 394.404C476.837 384.831 467.721 376.005 452.771 379.466C450.114 380.081 447.112 379.036 444.295 379.193C428.082 380.096 411.991 382.919 398.089 391.158C381.901 400.753 366.845 412.24 351.435 423.099C345.097 427.565 338.418 431.814 334.251 438.646C327.344 449.973 318.827 460.584 323.847 475.622C325.97 481.98 322.923 488.058 316.307 491.481C299.198 500.333 278.66 495.704 267.642 480.134C255.984 463.66 245.788 446.186 233.249 430.31C227.469 422.993 222.987 414.401 213.489 410.696C204.778 407.299 200.935 409 197.986 417.662C196.91 420.822 196.488 424.009 196.354 427.321C195.881 439.001 202.623 448.201 206.907 458.268C212.916 472.388 222.947 484.284 229.279 498.176C235.01 510.747 243.029 521.344 255.267 527.971C283.066 543.026 312.545 551.149 344.546 547.034C350.835 546.225 357.376 545.678 362.908 542.193C370.851 537.188 372.111 529.575 366.268 519.411C359.831 508.212 352.841 497.326 345.564 485.357ZM777.24 193.163C792.008 191.324 806.719 189.42 821.22 185.733C843.566 180.051 864.449 170.751 885.57 161.923C899.094 156.271 907.704 160.197 912.898 173.775C914.578 178.167 916.797 181.694 921.847 182.847C930.781 184.886 939.659 184.525 948.54 182.69C952.578 181.856 955.308 179.671 956.296 175.46C957.887 168.674 961.337 162.656 966.048 157.706C974.173 149.17 969.488 135.674 958.82 131.807C947.235 127.607 934.849 125.994 922.605 125.93C908.129 125.853 894.279 130.732 880.19 133.619C853.081 139.173 826.589 147.116 799.829 154.027C787.735 157.151 774.782 156.475 762.889 160.653C744.118 167.247 727.34 178.242 708.784 185.384C706.862 186.123 704.676 187.453 704.978 189.949C705.303 192.633 707.961 192.61 709.959 193.03C711.566 193.368 713.252 193.356 714.906 193.454C735.246 194.664 755.578 193.814 777.24 193.163ZM729.358 498.116C764.922 507.784 797.206 500.547 825.091 477.384C845.323 460.578 865.355 444.027 890.458 434.751C893.645 433.574 896.226 430.889 895.31 427.064C894.306 422.871 890.667 421.979 886.907 422.262C884.114 422.472 881.243 422.945 878.618 423.882C852.779 433.107 827.829 444.33 803.138 456.249C782.489 466.218 760.495 471.733 737.317 469.927C726.681 469.098 716.042 469.261 705.419 468.566C697.7 468.062 692.071 472.014 691.179 478.365C690.17 485.557 695.282 488.321 700.904 490.238C709.845 493.287 718.895 496.008 729.358 498.116Z" fill="#F2F1E5"/>
<path d="M1276.69 7.0889C1287.78 2.19707 1298.76 0.531494 1310.39 1.44803C1328.96 2.91117 1347.85 1.34027 1365.89 7.41136C1376.61 11.0231 1387.48 14.4095 1397.81 18.9616C1413.12 25.7127 1422.39 46.2419 1418.37 61.3578C1416.48 68.4912 1412.18 71.9472 1405.2 73.2168C1391.84 75.6473 1378.84 72.5289 1365.73 70.9574C1330.5 66.7312 1295.42 67.2973 1260.52 74.1377C1252.95 75.6226 1246.19 78.8148 1240.13 83.5442C1224.68 95.6053 1207.26 103.78 1188.42 109.122C1179.28 111.713 1168 108.135 1164.57 101.424C1160.46 93.375 1162.99 83.2316 1171.1 77.0688C1175.77 73.5139 1181.09 70.792 1185.79 67.274C1193.53 61.4964 1201.35 55.8713 1208.25 48.9874C1212.86 44.3924 1218.35 40.1842 1224.23 37.4213C1239.68 30.1514 1254.09 21.2984 1268.1 11.6749C1270.61 9.9509 1273.49 8.75829 1276.69 7.0889Z" fill="#F2F1E5"/>
<path d="M1086.14 505.722C1083.57 503.389 1082.19 500.892 1081.7 498.083C1080.54 491.509 1076.61 491.131 1071.25 492.941C1064.38 495.256 1058.66 498.904 1053.78 504.406C1037.8 522.439 1020.24 538.67 999.04 550.75C989.973 555.916 981.854 556.341 974.692 550.704C967.382 544.95 963.307 531.886 967.057 523.934C976.944 502.967 989.567 484.223 1011.45 473.618C1020.9 469.04 1027.88 461.766 1033.65 453.349C1042.69 440.192 1053.13 428.839 1067.56 421.037C1079.32 414.672 1089.2 404.984 1102.5 401.186C1104.77 400.538 1106.96 399.485 1109.26 399.126C1126.31 396.473 1143.06 393.247 1158.58 384.975C1167.82 380.05 1177.44 381.822 1186.22 387.451C1194.13 392.519 1194.05 400.232 1185.61 405.222C1172.44 413.016 1161.25 423.016 1151.44 434.55C1142.63 444.904 1135.8 455.915 1136.06 470.534C1136.19 477.558 1133.54 484.877 1131.03 491.655C1124.04 510.552 1102.35 517.381 1086.14 505.722Z" fill="#F2F1E5"/>
</svg>
