<svg width="127" height="152" viewBox="0 0 127 152" fill="none" xmlns="http://www.w3.org/2000/svg">
<g clip-path="url(#clip0_2002_6)">
<path d="M119.129 18.2462C121.02 17.8244 121.98 17.5566 122.62 16.9163C123.884 15.6518 123.558 14.0995 122.293 12.8342C121.735 12.2765 121.375 11.9172 119.991 11.4807C119.991 11.4807 118.862 11.4307 117.538 9.99563C116.091 8.65819 116.047 7.52239 116.047 7.52239C115.61 6.13955 115.258 5.79741 114.701 5.24041C113.435 3.97519 111.883 3.64771 110.618 4.91293C109.978 5.55323 109.712 6.5135 109.289 8.40436C109.289 8.40436 108.372 12.096 108.49 14.3823C108.577 16.0332 109.846 17.297 109.846 17.297L110.237 17.6878C110.237 17.6878 111.556 19.0134 113.153 19.0449C115.441 19.0867 119.13 18.2459 119.129 18.2462ZM105.41 15.9421C106.733 17.2648 106.134 20.008 104.073 22.069C102.012 24.1301 99.2685 24.7289 97.9457 23.4061C96.6229 22.0833 97.2218 19.3402 99.2828 17.2791C101.344 15.2181 104.087 14.6193 105.41 15.9421ZM106.729 10.0325C107.254 11.4575 105.88 13.2758 103.66 14.0934C101.441 14.911 99.2156 14.4191 98.6904 12.9944C98.1652 11.5697 99.5395 9.75145 101.759 8.93347C103.979 8.11585 106.203 8.60814 106.729 10.0325ZM110.978 21.5103C112.301 22.833 111.702 25.5766 109.641 27.6376C107.58 29.6986 104.837 30.2971 103.514 28.9743C102.191 27.6515 102.79 24.9084 104.851 22.8473C106.912 20.7863 109.655 20.1875 110.978 21.5103ZM113.926 28.2303C112.5 27.7052 112.009 25.4804 112.827 23.2603C113.645 21.0401 115.463 19.6666 116.888 20.1918C118.313 20.7173 118.805 22.9421 117.987 25.1619C117.17 27.3816 115.351 28.7555 113.926 28.2303Z" fill="#030104"/>
</g>
<g clip-path="url(#clip1_2002_6)">
<path d="M23.0306 70.8462C24.3717 69.4485 25.0231 68.6943 25.202 67.8066C25.5554 66.0536 24.4247 64.9411 22.6707 64.5875C21.8975 64.4317 21.3983 64.3321 20.0046 64.734C20.0046 64.734 19.0366 65.3171 17.1394 64.8548C15.1936 64.5419 14.5284 63.6203 14.5284 63.6203C13.3992 62.7103 12.9166 62.6202 12.1444 62.4645C10.3904 62.111 8.91622 62.6973 8.56264 64.4513C8.3837 65.339 8.6936 66.286 9.38781 68.0949C9.38781 68.0949 10.6674 71.677 12.0313 73.5157C13.017 74.8429 14.7738 75.1929 14.7738 75.1929L15.3155 75.3021C15.3155 75.3021 17.1473 75.6766 18.4952 74.8187C20.4243 73.5871 23.0307 70.8457 23.0306 70.8462ZM10.3286 76.5198C12.1624 76.8895 13.1818 79.5056 12.6059 82.3629C12.0299 85.2202 10.0765 87.2371 8.24271 86.8674C6.40891 86.4977 5.38952 83.8816 5.9655 81.0243C6.54148 78.167 8.49484 76.1501 10.3286 76.5198ZM8.15684 70.8676C9.38261 71.7641 9.24489 74.0387 7.84855 75.9482C6.45222 77.8576 4.32667 78.6794 3.10079 77.7834C1.87491 76.8875 2.01323 74.6125 3.40907 72.7029C4.80541 70.7934 6.93086 69.9722 8.15684 70.8676ZM18.048 78.0759C19.8818 78.4456 20.9017 81.0618 20.3257 83.9191C19.7497 86.7764 17.7959 88.7932 15.962 88.4235C14.1282 88.0538 13.1088 85.4377 13.6848 82.5804C14.2608 79.7231 16.2142 77.7062 18.048 78.0759ZM24.2222 82.0417C22.7443 82.3931 21.1036 80.8122 20.5562 78.5103C20.0088 76.2085 20.7631 74.0582 22.241 73.7068C23.7187 73.3558 25.3594 74.9368 25.9069 77.2381C26.4544 79.5394 25.7 81.6903 24.2222 82.0417Z" fill="#030104"/>
</g>
<g clip-path="url(#clip2_2002_6)">
<path d="M32.0306 131.846C33.3717 130.449 34.0231 129.694 34.202 128.807C34.5554 127.054 33.4247 125.941 31.6707 125.588C30.8975 125.432 30.3983 125.332 29.0046 125.734C29.0046 125.734 28.0366 126.317 26.1394 125.855C24.1936 125.542 23.5284 124.62 23.5284 124.62C22.3992 123.71 21.9166 123.62 21.1444 123.465C19.3904 123.111 17.9162 123.697 17.5626 125.451C17.3837 126.339 17.6936 127.286 18.3878 129.095C18.3878 129.095 19.6674 132.677 21.0313 134.516C22.017 135.843 23.7738 136.193 23.7738 136.193L24.3155 136.302C24.3155 136.302 26.1473 136.677 27.4952 135.819C29.4243 134.587 32.0307 131.846 32.0306 131.846ZM19.3286 137.52C21.1624 137.889 22.1818 140.506 21.6059 143.363C21.0299 146.22 19.0765 148.237 17.2427 147.867C15.4089 147.498 14.3895 144.882 14.9655 142.024C15.5415 139.167 17.4948 137.15 19.3286 137.52ZM17.1568 131.868C18.3826 132.764 18.2449 135.039 16.8486 136.948C15.4522 138.858 13.3267 139.679 12.1008 138.783C10.8749 137.887 11.0132 135.612 12.4091 133.703C13.8054 131.793 15.9309 130.972 17.1568 131.868ZM27.048 139.076C28.8818 139.446 29.9017 142.062 29.3257 144.919C28.7497 147.776 26.7959 149.793 24.962 149.424C23.1282 149.054 22.1088 146.438 22.6848 143.58C23.2608 140.723 25.2142 138.706 27.048 139.076ZM33.2222 143.042C31.7443 143.393 30.1036 141.812 29.5562 139.51C29.0088 137.209 29.7631 135.058 31.241 134.707C32.7187 134.356 34.3594 135.937 34.9069 138.238C35.4544 140.539 34.7 142.69 33.2222 143.042Z" fill="#030104"/>
</g>
<g clip-path="url(#clip3_2002_6)">
<path d="M87.6499 69.3042C89.58 69.4676 90.576 69.4995 91.3786 69.0802C92.9637 68.2522 93.1173 66.6735 92.2888 65.0875C91.9236 64.3884 91.687 63.9376 90.4979 63.1071C90.4979 63.1071 89.4356 62.7214 88.6017 60.9557C87.6209 59.2463 87.919 58.1494 87.919 58.1494C87.9161 56.6992 87.6825 56.2673 87.3178 55.5691C86.4893 53.9832 85.1062 53.206 83.5203 54.0345C82.7177 54.4538 82.1764 55.2904 81.2069 56.9679C81.2069 56.9679 79.2272 60.2159 78.6557 62.4327C78.244 64.0339 79.077 65.6198 79.077 65.6198L79.3329 66.1096C79.3329 66.1096 80.194 67.7691 81.7087 68.2773C83.8797 69.0022 87.6503 69.304 87.6499 69.3042ZM75.2494 62.9988C76.1155 64.6569 74.723 67.095 72.1395 68.4446C69.556 69.7941 66.7594 69.5443 65.8932 67.8862C65.0271 66.2281 66.4196 63.79 69.0031 62.4405C71.5866 61.0909 74.3832 61.3407 75.2494 62.9988ZM78.2771 57.7551C78.3513 59.2719 76.4964 60.5956 74.1337 60.7113C71.771 60.8269 69.7951 59.6914 69.7205 58.1749C69.6459 56.6583 71.5014 55.3348 73.8639 55.2187C76.2267 55.1031 78.202 56.2388 78.2771 57.7551ZM78.8954 69.9785C79.7615 71.6366 78.3692 74.0752 75.7857 75.4247C73.2022 76.7743 70.4054 76.524 69.5392 74.8659C68.6731 73.2078 70.0656 70.7697 72.6491 69.4202C75.2326 68.0706 78.0292 68.3204 78.8954 69.9785ZM79.6962 77.2728C78.4934 76.345 78.6904 74.0751 80.1354 72.2017C81.5805 70.3282 83.7266 69.5619 84.9294 70.4897C86.1317 71.4177 85.9348 73.6877 84.4902 75.5609C83.0455 77.4341 80.899 78.2006 79.6962 77.2728Z" fill="#030104"/>
</g>
<defs>
<clipPath id="clip0_2002_6">
<rect width="24.6927" height="24.6927" fill="white" transform="matrix(0.707107 0.707107 0.707107 -0.707107 92 17.4604)"/>
</clipPath>
<clipPath id="clip1_2002_6">
<rect width="24.6927" height="24.6927" fill="white" transform="matrix(0.980281 0.19761 0.19761 -0.980281 0 85.2056)"/>
</clipPath>
<clipPath id="clip2_2002_6">
<rect width="24.6927" height="24.6927" fill="white" transform="matrix(0.980281 0.19761 0.19761 -0.980281 9 146.206)"/>
</clipPath>
<clipPath id="clip3_2002_6">
<rect width="24.6927" height="24.6927" fill="white" transform="matrix(0.463009 0.886354 0.886354 -0.463009 62 60.4331)"/>
</clipPath>
</defs>
</svg>
