<svg width="128" height="161" viewBox="0 0 128 161" fill="none" xmlns="http://www.w3.org/2000/svg">
<g clip-path="url(#clip0_2002_5)">
<path d="M7.79074 18.2462C5.90024 17.8244 4.94033 17.5566 4.30003 16.9163C3.03552 15.6518 3.36157 14.0995 4.62679 12.8342C5.18451 12.2765 5.54523 11.9172 6.92843 11.4807C6.92843 11.4807 8.05744 11.4307 9.38165 9.99563C10.8292 8.65819 10.8732 7.52239 10.8732 7.52239C11.3101 6.13955 11.6622 5.79741 12.2192 5.24041C13.4844 3.97519 15.0367 3.64771 16.3019 4.91293C16.9422 5.55323 17.2082 6.5135 17.6312 8.40436C17.6312 8.40436 18.5478 12.096 18.4295 14.3823C18.343 16.0332 17.0734 17.297 17.0734 17.297L16.6827 17.6878C16.6827 17.6878 15.3642 19.0134 13.7669 19.0449C11.4784 19.0867 7.79038 18.2459 7.79074 18.2462ZM21.5101 15.9421C20.1873 17.2648 20.7862 20.008 22.8472 22.069C24.9082 24.1301 27.6514 24.7289 28.9742 23.4061C30.297 22.0833 29.6981 19.3402 27.6371 17.2791C25.5761 15.2181 22.8329 14.6193 21.5101 15.9421ZM20.1909 10.0325C19.6661 11.4575 21.0396 13.2758 23.2594 14.0934C25.4792 14.911 27.7043 14.4191 28.2295 12.9944C28.7547 11.5697 27.3804 9.75145 25.161 8.93347C22.9412 8.11585 20.7165 8.60814 20.1909 10.0325ZM15.9419 21.5103C14.6192 22.833 15.2176 25.5766 17.2787 27.6376C19.3397 29.6986 22.0832 30.2971 23.406 28.9743C24.7288 27.6515 24.1299 24.9084 22.0689 22.8473C20.0079 20.7863 17.2647 20.1875 15.9419 21.5103ZM12.9943 28.2303C14.4197 27.7052 14.9112 25.4804 14.0933 23.2603C13.2753 21.0401 11.457 19.6666 10.0316 20.1918C8.60658 20.7173 8.115 22.9421 8.93262 25.1619C9.75025 27.3816 11.5689 28.7555 12.9943 28.2303Z" fill="#030104"/>
</g>
<g clip-path="url(#clip1_2002_5)">
<path d="M104.055 80.8462C102.714 79.4485 102.063 78.6943 101.884 77.8066C101.531 76.0536 102.661 74.9411 104.415 74.5875C105.188 74.4317 105.688 74.3321 107.081 74.734C107.081 74.734 108.049 75.3171 109.947 74.8548C111.892 74.5419 112.558 73.6203 112.558 73.6203C113.687 72.7103 114.169 72.6202 114.942 72.4645C116.696 72.111 118.17 72.6973 118.523 74.4513C118.702 75.339 118.392 76.286 117.698 78.0949C117.698 78.0949 116.419 81.677 115.055 83.5157C114.069 84.8429 112.312 85.1929 112.312 85.1929L111.77 85.3021C111.77 85.3021 109.939 85.6766 108.591 84.8187C106.662 83.5871 104.055 80.8457 104.055 80.8462ZM116.757 86.5198C114.923 86.8895 113.904 89.5056 114.48 92.3629C115.056 95.2202 117.009 97.2371 118.843 96.8674C120.677 96.4977 121.696 93.8816 121.12 91.0243C120.544 88.167 118.591 86.1501 116.757 86.5198ZM118.929 80.8676C117.703 81.7641 117.841 84.0387 119.237 85.9482C120.634 87.8576 122.759 88.6794 123.985 87.7834C125.211 86.8875 125.073 84.6125 123.677 82.7029C122.281 80.7934 120.155 79.9722 118.929 80.8676ZM109.038 88.0759C107.204 88.4456 106.184 91.0618 106.76 93.9191C107.336 96.7764 109.29 98.7932 111.124 98.4235C112.958 98.0538 113.977 95.4377 113.401 92.5804C112.825 89.7231 110.872 87.7062 109.038 88.0759ZM102.864 92.0417C104.342 92.3931 105.982 90.8122 106.53 88.5103C107.077 86.2085 106.323 84.0582 104.845 83.7068C103.367 83.3558 101.727 84.9368 101.179 87.2381C100.632 89.5394 101.386 91.6903 102.864 92.0417Z" fill="#030104"/>
</g>
<g clip-path="url(#clip2_2002_5)">
<path d="M77.0553 140.846C75.7142 139.449 75.0629 138.694 74.8839 137.807C74.5306 136.054 75.6612 134.941 77.4152 134.588C78.1884 134.432 78.6877 134.332 80.0813 134.734C80.0813 134.734 81.0494 135.317 82.9465 134.855C84.8923 134.542 85.5576 133.62 85.5576 133.62C86.6867 132.71 87.1694 132.62 87.9416 132.465C89.6956 132.111 91.1697 132.697 91.5233 134.451C91.7022 135.339 91.3923 136.286 90.6981 138.095C90.6981 138.095 89.4185 141.677 88.0547 143.516C87.0689 144.843 85.3121 145.193 85.3121 145.193L84.7704 145.302C84.7704 145.302 82.9386 145.677 81.5908 144.819C79.6616 143.587 77.0552 140.846 77.0553 140.846ZM89.7573 146.52C87.9235 146.889 86.9041 149.506 87.4801 152.363C88.0561 155.22 90.0094 157.237 91.8432 156.867C93.677 156.498 94.6964 153.882 94.1204 151.024C93.5445 148.167 91.5911 146.15 89.7573 146.52ZM91.9291 140.868C90.7033 141.764 90.841 144.039 92.2374 145.948C93.6337 147.858 95.7593 148.679 96.9851 147.783C98.211 146.887 98.0727 144.612 96.6769 142.703C95.2805 140.793 93.1551 139.972 91.9291 140.868ZM82.038 148.076C80.2042 148.446 79.1843 151.062 79.7603 153.919C80.3362 156.776 82.2901 158.793 84.1239 158.424C85.9577 158.054 86.9771 155.438 86.4011 152.58C85.8251 149.723 83.8718 147.706 82.038 148.076ZM75.8638 152.042C77.3416 152.393 78.9823 150.812 79.5297 148.51C80.0771 146.209 79.3228 144.058 77.845 143.707C76.3672 143.356 74.7265 144.937 74.179 147.238C73.6315 149.539 74.3859 151.69 75.8638 152.042Z" fill="#030104"/>
</g>
<g clip-path="url(#clip3_2002_5)">
<path d="M40.6704 69.3042C38.7403 69.4676 37.7443 69.4995 36.9417 69.0802C35.3566 68.2522 35.203 66.6735 36.0315 65.0875C36.3967 64.3884 36.6333 63.9376 37.8224 63.1071C37.8224 63.1071 38.8847 62.7214 39.7186 60.9557C40.6994 59.2463 40.4013 58.1494 40.4013 58.1494C40.4042 56.6992 40.6378 56.2673 41.0025 55.5691C41.831 53.9832 43.2141 53.206 44.8 54.0345C45.6026 54.4538 46.1439 55.2904 47.1134 56.9679C47.1134 56.9679 49.0932 60.2159 49.6646 62.4327C50.0763 64.0339 49.2433 65.6198 49.2433 65.6198L48.9875 66.1096C48.9875 66.1096 48.1263 67.7691 46.6116 68.2773C44.4406 69.0022 40.67 69.304 40.6704 69.3042ZM53.0709 62.9988C52.2048 64.6569 53.5973 67.095 56.1808 68.4446C58.7643 69.7941 61.5609 69.5443 62.4271 67.8862C63.2932 66.2281 61.9007 63.79 59.3172 62.4405C56.7337 61.0909 53.9371 61.3407 53.0709 62.9988ZM50.0432 57.7551C49.969 59.2719 51.8239 60.5956 54.1866 60.7113C56.5494 60.8269 58.5252 59.6914 58.5998 58.1749C58.6744 56.6583 56.8189 55.3348 54.4564 55.2187C52.0937 55.1031 50.1183 56.2388 50.0432 57.7551ZM49.4249 69.9785C48.5588 71.6366 49.9511 74.0752 52.5346 75.4247C55.1181 76.7743 57.9149 76.524 58.7811 74.8659C59.6472 73.2078 58.2547 70.7697 55.6712 69.4202C53.0877 68.0706 50.2911 68.3204 49.4249 69.9785ZM48.6241 77.2728C49.8269 76.345 49.63 74.0751 48.1849 72.2017C46.7398 70.3282 44.5938 69.5619 43.3909 70.4897C42.1886 71.4177 42.3855 73.6877 43.8302 75.5609C45.2748 77.4341 47.4213 78.2006 48.6241 77.2728Z" fill="#030104"/>
</g>
<defs>
<clipPath id="clip0_2002_5">
<rect width="24.6927" height="24.6927" fill="white" transform="translate(34.9199 17.4604) rotate(135)"/>
</clipPath>
<clipPath id="clip1_2002_5">
<rect width="24.6927" height="24.6927" fill="white" transform="translate(127.086 95.2056) rotate(168.603)"/>
</clipPath>
<clipPath id="clip2_2002_5">
<rect width="24.6927" height="24.6927" fill="white" transform="translate(100.086 155.206) rotate(168.603)"/>
</clipPath>
<clipPath id="clip3_2002_5">
<rect width="24.6927" height="24.6927" fill="white" transform="translate(66.3203 60.4331) rotate(117.581)"/>
</clipPath>
</defs>
</svg>
