<svg width="88" height="106" viewBox="0 0 88 106" fill="none" xmlns="http://www.w3.org/2000/svg">
<g clip-path="url(#clip0_2002_7)">
<path d="M64.0553 20.8466C62.7142 19.449 62.0629 18.6947 61.8839 17.8071C61.5306 16.0541 62.6612 14.9416 64.4152 14.588C65.1884 14.4322 65.6877 14.3325 67.0813 14.7345C67.0813 14.7345 68.0494 15.3176 69.9465 14.8552C71.8923 14.5424 72.5576 13.6208 72.5576 13.6208C73.6867 12.7108 74.1694 12.6207 74.9416 12.465C76.6956 12.1115 78.1697 12.6978 78.5233 14.4518C78.7022 15.3395 78.3923 16.2865 77.6981 18.0954C77.6981 18.0954 76.4185 21.6775 75.0547 23.5162C74.0689 24.8434 72.3121 25.1934 72.3121 25.1934L71.7704 25.3026C71.7704 25.3026 69.9386 25.677 68.5908 24.8192C66.6616 23.5876 64.0552 20.8462 64.0553 20.8466ZM76.7573 26.5203C74.9235 26.8899 73.9041 29.5061 74.4801 32.3634C75.0561 35.2207 77.0094 37.2376 78.8432 36.8679C80.677 36.4982 81.6964 33.8821 81.1204 31.0248C80.5445 28.1675 78.5911 26.1506 76.7573 26.5203ZM78.9291 20.8681C77.7033 21.7646 77.841 24.0392 79.2374 25.9486C80.6337 27.8581 82.7593 28.6799 83.9851 27.7839C85.211 26.888 85.0727 24.613 83.6769 22.7034C82.2805 20.7939 80.1551 19.9727 78.9291 20.8681ZM69.038 28.0764C67.2042 28.4461 66.1843 31.0623 66.7603 33.9196C67.3362 36.7769 69.2901 38.7937 71.1239 38.424C72.9577 38.0543 73.9771 35.4382 73.4011 32.5809C72.8251 29.7236 70.8718 27.7067 69.038 28.0764ZM62.8638 32.0422C64.3416 32.3936 65.9823 30.8127 66.5297 28.5108C67.0771 26.209 66.3228 24.0587 64.845 23.7073C63.3672 23.3563 61.7265 24.9373 61.179 27.2386C60.6315 29.5399 61.3859 31.6907 62.8638 32.0422Z" fill="#030104"/>
</g>
<g clip-path="url(#clip1_2002_7)">
<path d="M43.0553 85.8466C41.7142 84.449 41.0629 83.6947 40.884 82.8071C40.5306 81.0541 41.6612 79.9416 43.4152 79.588C44.1884 79.4322 44.6877 79.3325 46.0813 79.7345C46.0813 79.7345 47.0494 80.3176 48.9465 79.8552C50.8924 79.5424 51.5576 78.6208 51.5576 78.6208C52.6867 77.7108 53.1694 77.6207 53.9416 77.465C55.6956 77.1115 57.1697 77.6978 57.5233 79.4518C57.7023 80.3395 57.3923 81.2865 56.6981 83.0954C56.6981 83.0954 55.4186 86.6775 54.0547 88.5162C53.0689 89.8434 51.3121 90.1934 51.3121 90.1934L50.7704 90.3026C50.7704 90.3026 48.9386 90.677 47.5908 89.8192C45.6616 88.5876 43.0552 85.8462 43.0553 85.8466ZM55.7573 91.5203C53.9235 91.8899 52.9041 94.5061 53.4801 97.3634C54.0561 100.221 56.0094 102.238 57.8432 101.868C59.677 101.498 60.6964 98.8821 60.1205 96.0248C59.5445 93.1675 57.5911 91.1506 55.7573 91.5203ZM57.9291 85.8681C56.7033 86.7646 56.8411 89.0392 58.2374 90.9486C59.6337 92.8581 61.7593 93.6799 62.9852 92.7839C64.211 91.888 64.0727 89.613 62.6769 87.7034C61.2805 85.7939 59.1551 84.9727 57.9291 85.8681ZM48.038 93.0764C46.2042 93.4461 45.1843 96.0623 45.7603 98.9196C46.3363 101.777 48.2901 103.794 50.1239 103.424C51.9577 103.054 52.9771 100.438 52.4011 97.5809C51.8251 94.7236 49.8718 92.7067 48.038 93.0764ZM41.8638 97.0422C43.3416 97.3936 44.9823 95.8127 45.5297 93.5108C46.0771 91.209 45.3228 89.0587 43.845 88.7073C42.3672 88.3563 40.7266 89.9373 40.1791 92.2386C39.6316 94.5399 40.3859 96.6907 41.8638 97.0422Z" fill="#030104"/>
</g>
<g clip-path="url(#clip2_2002_7)">
<path d="M7.67045 20.3042C5.74035 20.4676 4.74431 20.4995 3.9417 20.0802C2.35665 19.2522 2.20306 17.6735 3.03152 16.0875C3.3967 15.3884 3.63333 14.9376 4.82243 14.1071C4.82243 14.1071 5.88469 13.7214 6.7186 11.9557C7.69941 10.2463 7.40136 9.1494 7.40136 9.1494C7.40425 7.69919 7.63783 7.26733 8.00255 6.56914C8.83101 4.98319 10.2141 4.20605 11.8 5.03451C12.6026 5.45377 13.1439 6.29038 14.1135 7.96793C14.1135 7.96793 16.0932 11.2159 16.6647 13.4327C17.0763 15.0339 16.2433 16.6198 16.2433 16.6198L15.9875 17.1096C15.9875 17.1096 15.1263 18.7691 13.6116 19.2773C11.4406 20.0022 7.67 20.304 7.67045 20.3042ZM20.071 13.9988C19.2048 15.6569 20.5973 18.095 23.1808 19.4446C25.7643 20.7941 28.561 20.5443 29.4271 18.8862C30.2933 17.2281 28.9007 14.79 26.3172 13.4405C23.7337 12.0909 20.9371 12.3407 20.071 13.9988ZM17.0432 8.7551C16.969 10.2719 18.8239 11.5956 21.1866 11.7113C23.5494 11.8269 25.5252 10.6914 25.5998 9.17488C25.6744 7.65833 23.8189 6.33481 21.4564 6.21872C19.0937 6.10308 17.1183 7.23878 17.0432 8.7551ZM16.4249 20.9785C15.5588 22.6366 16.9511 25.0752 19.5346 26.4247C22.1181 27.7743 24.9149 27.524 25.7811 25.8659C26.6472 24.2078 25.2547 21.7697 22.6712 20.4202C20.0877 19.0706 17.2911 19.3204 16.4249 20.9785ZM15.6241 28.2728C16.8269 27.345 16.63 25.0751 15.1849 23.2017C13.7398 21.3282 11.5938 20.5619 10.391 21.4897C9.1886 22.4177 9.38555 24.6877 10.8302 26.5609C12.2748 28.4341 14.4213 29.2006 15.6241 28.2728Z" fill="#030104"/>
</g>
<defs>
<clipPath id="clip0_2002_7">
<rect width="24.6927" height="24.6927" fill="white" transform="translate(87.0859 35.2061) rotate(168.603)"/>
</clipPath>
<clipPath id="clip1_2002_7">
<rect width="24.6927" height="24.6927" fill="white" transform="translate(66.086 100.206) rotate(168.603)"/>
</clipPath>
<clipPath id="clip2_2002_7">
<rect width="24.6927" height="24.6927" fill="white" transform="translate(33.3203 11.4331) rotate(117.581)"/>
</clipPath>
</defs>
</svg>
