<svg width="1440" height="928" viewBox="0 0 1440 928" fill="none" xmlns="http://www.w3.org/2000/svg">
<path d="M1346.82 -0.991699C1377.92 -0.991699 1409.01 -0.991699 1440.21 -0.991699C1440.21 118.06 1440.21 237.111 1439.79 356.775C1425.98 362.134 1412.58 366.905 1399.17 371.622C1380.11 378.323 1361.24 385.634 1341.91 391.475C1323.96 396.901 1305.95 401.756 1289.27 410.667C1273.27 419.209 1256.82 426.913 1240.64 435.116C1235.31 437.818 1229.8 440.408 1225.05 443.947C1210.39 454.866 1196.06 466.214 1181.62 477.413C1180.88 477.981 1180.21 478.656 1179.63 479.38C1168.85 492.924 1157.28 505.935 1147.57 520.193C1137.64 534.77 1129.27 550.428 1120.73 565.89C1114.66 576.871 1107.6 586.514 1096.19 592.705C1091.49 595.257 1087.08 598.755 1083.37 602.607C1066.31 620.288 1045.24 631.094 1022.3 639.031C1012.94 642.267 1003.73 646.001 994.686 650.022C978.967 657.008 963.727 665.166 947.682 671.272C940.155 674.137 931.237 673.811 922.921 674.072C918.517 674.21 916.064 670.656 917.217 666.293C919.873 656.244 921.561 645.586 926.269 636.516C932.475 624.558 941.12 613.832 948.876 602.686C952.066 598.102 955.67 593.803 959.086 589.375C958.675 588.774 958.264 588.174 957.852 587.574C953.309 587.853 948.75 587.98 944.224 588.436C918.066 591.07 893.1 598.066 869.328 609.136C855.093 615.766 841.229 623.207 826.843 629.482C809.009 637.262 791.26 644.742 775.404 656.52C760.078 667.905 741.968 674.339 723.006 676.761C711.191 678.271 699.042 677.008 687.064 677.502C676.427 677.94 664.912 677.568 657.812 687.311C650.156 697.816 642.739 708.675 636.808 720.185C630.101 733.199 625.465 747.246 619.368 760.592C613.338 773.792 606.751 786.566 594.821 796.075C588.045 801.476 582.892 808.848 576.83 815.164C554.71 838.209 529.581 852.956 495.869 843.593C493.161 842.841 490.388 842.275 487.745 841.345C473.031 836.167 457.832 836.825 442.664 837.762C423.897 838.921 407.225 845.809 391.13 855.355C369.44 868.219 346.268 878.722 325.115 892.348C307.927 903.421 290.004 912.251 270.906 918.983C252.384 925.513 233.563 930.459 213.781 924.087C203.142 920.659 195.39 914.065 191.703 903.513C187.155 890.493 187.033 876.875 190.686 863.936C197.298 840.517 205.629 817.581 212.591 794.251C214.84 786.712 215.72 778.6 216.031 770.703C216.496 758.939 212.579 754.237 200.587 754.266C178.882 754.319 157.16 755.339 135.482 756.587C114.333 757.805 94.0892 762.734 75.0348 772.421C60.1983 779.964 44.8561 786.522 29.8693 793.783C19.7949 798.664 9.94845 804.008 0 809.144C0 700.508 6.7065e-08 591.871 0.407203 482.694C16.9049 475.083 33.0002 468.025 49.0792 460.929C50.9586 460.1 52.8709 459.248 54.5597 458.104C75.6377 443.829 97.5921 431.109 121.028 420.989C122.052 420.547 122.948 419.821 123.955 419.329C145.923 408.601 166.428 394.852 190.65 388.786C201.883 385.973 212.884 382.05 223.727 377.946C252.245 367.151 280.117 354.703 309.627 346.472C317.797 344.193 325.328 339.581 333.054 335.842C346.176 329.491 358.766 321.741 372.404 316.829C393.333 309.29 414.896 303.442 436.31 297.283C455.091 291.881 473.895 294.214 492.33 299.118C501.454 301.545 507.458 307.483 507.952 317.874C508.232 323.756 509.211 329.753 510.918 335.388C513.464 343.791 519.946 346.519 528.073 343.266C531.531 341.882 534.913 340.227 538.136 338.365C548.974 332.104 559.746 325.731 570.499 319.328C576.444 315.788 582.909 315.347 589.534 316.052C593.948 316.521 596.469 319.451 596.25 323.61C596.019 327.989 595.64 332.772 593.717 336.578C585.165 353.507 572.449 367.592 559.44 381.06C547.625 393.292 537.555 406.065 530.294 421.563C523.88 435.25 532.19 448.443 547.503 448.468C552.547 448.476 557.596 447.912 562.638 447.541C578.343 446.384 593.485 443.625 605.907 432.858C607.574 431.413 609.685 430.444 611.659 429.38C629.606 419.719 647.853 410.568 665.455 400.326C689.521 386.323 713.121 371.531 736.859 356.978C740.029 355.035 743.004 352.698 745.783 350.226C766.359 331.926 790.07 320.02 817.306 314.938C823.15 313.847 828.741 311.482 834.515 309.95C852.593 305.152 870.489 299.287 888.853 296.044C911.874 291.979 935.287 290.085 958.535 287.283C987.361 283.809 1016.2 280.419 1045.02 276.883C1056.74 275.445 1068.59 274.157 1078.98 267.887C1098.51 256.108 1118.35 244.771 1137.17 231.959C1143.72 227.497 1148.32 219.624 1152.54 212.562C1156.17 206.494 1153.82 201.278 1147.22 198.605C1141.56 196.308 1135.59 193.835 1129.61 193.387C1116.94 192.439 1104.09 191.746 1091.46 192.763C1058.74 195.398 1026.5 201.377 994.359 208.004C980.518 210.857 966.253 212.503 952.125 212.949C936.27 213.45 928.403 202.855 930.016 187.462C931.503 173.277 938.339 162.092 946.617 150.991C963.083 128.906 982.04 109.05 1002.33 90.6252C1029.26 66.164 1057.57 43.2125 1084.94 19.2103C1095.51 9.93497 1107 3.37407 1121.06 1.38646C1124.35 0.921374 1127.55 -0.181985 1130.79 -0.991694C1168.69 -0.991699 1206.6 -0.991699 1244.97 -0.540914C1244.35 2.66774 1244 6.19264 1242.04 8.03941C1236.21 13.5406 1233.03 21.773 1224.74 24.791C1224.01 25.0564 1223.62 26.2199 1223.06 26.9549C1220.94 29.7245 1219.23 32.9692 1216.62 35.1647C1209.2 41.4005 1201.34 47.1128 1193.81 53.2201C1189.62 56.6189 1185.36 60.0607 1181.81 64.0736C1175.53 71.1695 1176.82 80.6176 1184.61 82.8125C1200.2 87.2062 1216.36 88.8526 1231.22 81.2243C1242.78 75.2932 1253.99 68.088 1263.91 59.7577C1287.09 40.299 1313.21 25.5068 1339.29 10.5759C1344.22 7.75251 1347.41 4.86536 1346.82 -0.991699ZM217.729 445.491C220.224 453.272 227.312 456.579 235.643 453.14C242.374 450.363 248.754 446.748 255.28 443.485C268.057 437.099 281.405 433.199 295.275 438.843C301.353 441.316 306.879 441.312 312.984 440.605C325.971 439.101 339.029 438.19 351.998 436.568C358.858 435.711 365.589 433.855 372.384 432.481C380.251 430.889 382.622 432.906 384.467 440.373C385.537 444.703 387.461 449.611 390.635 452.482C397.774 458.94 399.072 467.274 400.936 475.762C402.957 484.962 402.729 494.132 413.946 500.233C425.18 506.343 436.044 508.98 448.12 508.203C457.238 507.615 466.405 504.299 475.33 504.992C492.45 506.32 509.289 507 526.031 502.516C527.356 502.161 528.951 502.937 530.384 502.804C534.352 502.437 539.087 503.067 542.098 501.13C548.75 496.85 555.798 495.572 563.358 495.129C571.142 494.673 579.04 494.604 586.65 493.143C594.853 491.567 602.784 488.59 610.824 486.192C614.4 485.126 618.197 484.453 621.466 482.779C629.113 478.862 636.606 474.618 643.96 470.18C649.17 467.035 651.234 461.918 652.41 455.412C644.722 457.795 638.219 460.196 631.523 461.812C613.882 466.069 596.122 469.832 578.479 474.079C561.013 478.282 543.715 483.53 525.427 482.096C516.095 481.364 506.811 479.481 497.487 479.343C483.645 479.138 472.775 472.714 462.367 464.88C458.176 461.726 454.128 458.244 459.304 452.579C459.785 452.053 459.917 450.684 459.577 450.029C455.027 441.24 459.449 434.007 464.178 427.351C469.008 420.554 474.74 414.361 480.34 408.137C484.346 403.685 487.328 398.978 487.218 392.789C487.134 388.039 484.561 385.04 479.976 385.402C473.716 385.895 467.373 386.885 461.366 388.661C452.221 391.366 443.408 395.155 434.316 398.057C426.596 400.521 425.756 399.196 426.98 391.091C428.385 381.786 429.481 372.376 429.782 362.983C430.021 355.526 425.363 349.763 419.66 349.599C415.256 349.472 410.399 349.598 406.471 351.281C394.277 356.505 382.158 362.032 370.507 368.342C347.747 380.669 324.624 391.818 299.173 397.793C274.51 403.583 252.74 416.32 230.282 427.325C228.136 428.377 225.757 429.779 224.526 431.681C221.879 435.774 219.909 440.299 217.729 445.491ZM428.178 710.748C418.421 713.355 409.577 717.601 402.529 724.986C399.057 728.625 395.745 732.415 392.258 736.04C387.895 740.578 382.963 742.484 376.199 741.909C368.699 741.271 360.927 742.088 353.442 743.299C337.597 745.862 321.964 750.061 306.047 751.725C294.693 752.912 288.509 758.342 284.108 767.83C279.969 776.753 276.704 786.603 270.517 793.941C260.654 805.636 254.153 818.629 248.812 832.59C243.84 845.587 240.409 858.774 241.855 872.806C242.855 882.509 246.381 885.349 256.021 885.243C263.999 885.156 270.794 882.317 276.152 876.75C286.987 865.495 297.463 853.901 308.136 842.491C316.267 833.801 324.354 825.065 332.708 816.59C335.683 813.572 339.311 811.481 343.441 815.487C349.28 821.153 354.252 821.687 360.936 817.246C367.761 812.71 374.955 808.517 381.008 803.098C387.725 797.084 394.59 790.586 399.108 782.968C404.838 773.308 410.531 763.85 418.55 755.932C431.146 743.495 443.616 730.898 460.167 723.387C461.816 722.638 464.054 720.692 463.999 719.384C463.939 717.927 461.812 716.122 460.165 715.232C450.422 709.965 439.949 708.904 428.178 710.748ZM1091.98 68.1515C1088.38 71.107 1084.68 73.9581 1081.19 77.0358C1064.96 91.3263 1049.08 105.902 1030.75 117.772C1017.51 126.348 1005.4 136.697 993.144 146.682C988.038 150.84 987.719 157.273 989.184 163.166C990.553 168.67 995.988 168.612 1000.59 169.58C1014.23 172.451 1026.34 168.943 1038.18 162.207C1056.35 151.88 1075.81 146.921 1097.08 146.484C1112.23 146.173 1127.41 142.49 1142.34 139.235C1150.96 137.356 1152.3 131.926 1147.67 124.461C1144.66 119.611 1139.88 119.572 1135.23 120.402C1128.41 121.617 1121.77 123.793 1114.95 124.903C1111.03 125.541 1106.61 125.774 1102.9 124.643C1092.39 121.443 1081.84 120.791 1071.31 123.361C1066.02 124.651 1063.82 122.759 1062.35 119.162C1077.19 108.291 1091.66 97.7734 1106.03 87.1304C1109.61 84.4753 1112.7 81.1501 1116.35 78.5929C1127.04 71.0945 1138.13 64.1313 1148.55 56.2993C1152.02 53.6985 1156.31 48.9535 1156.09 45.4444C1155.66 38.6976 1154.88 32.4018 1157.64 25.8969C1158.26 24.4227 1156.54 21.3761 1155.06 19.8596C1154.27 19.0541 1151.27 19.3653 1149.99 20.2274C1144.63 23.824 1139.53 27.7975 1134.38 31.68C1131.4 33.9233 1128.77 36.8145 1125.5 38.4523C1111.86 45.2762 1099.85 53.7715 1091.98 68.1515ZM1357.06 304.338C1355.03 305.973 1353.04 307.681 1350.94 309.233C1329.06 325.417 1305.96 340.039 1287.43 360.457C1282.44 365.96 1275.46 370.15 1268.64 373.415C1263.07 376.085 1258.43 379.256 1254.46 383.794C1252.09 386.5 1249.99 389.252 1252.64 392.634C1255.37 396.123 1258.78 395.177 1262.22 393.37C1271.14 388.696 1280.12 384.154 1289.07 379.548C1297.2 375.365 1306.34 372.396 1313.26 366.748C1335.3 348.743 1360.77 338.952 1388.25 333.572C1402.29 330.824 1413.8 324.464 1422.9 313.562C1429.19 306.03 1427.24 296.494 1417.87 292.861C1405.9 288.22 1393.27 286.127 1380.43 286.717C1377.28 286.862 1373.9 289.235 1371.26 291.358C1366.47 295.203 1362.17 299.632 1357.06 304.338ZM868.342 356.246C890.386 349.507 912.4 342.691 932.738 331.313C930.45 330.784 928.296 330.862 926.154 331.06C916.089 331.993 905.965 332.537 895.978 334C875.823 336.952 855.255 338.698 835.774 344.157C817.562 349.261 800.53 358.512 782.989 365.962C770.603 371.221 758.236 376.525 745.857 381.8C735.873 386.054 731.887 394.793 727.583 405.323C731.232 404.088 733.471 403.353 735.693 402.573C742.047 400.342 748.338 397.918 754.754 395.88C776.674 388.919 798.792 382.537 820.53 375.063C836.435 369.594 851.863 362.758 868.342 356.246ZM884.857 302.599C879.818 303.908 874.779 305.218 869.739 306.527C869.86 306.99 869.98 307.452 870.1 307.914C876.248 306.131 883.284 308.676 889.841 303.307C887.759 302.932 886.732 302.748 884.857 302.599Z" fill="#ECEBDA" fill-opacity="0.7"/>
<path d="M885.28 302.581C886.731 302.748 887.758 302.932 889.84 303.307C883.283 308.676 876.247 306.131 870.099 307.914C869.979 307.452 869.859 306.99 869.738 306.527C874.778 305.218 879.817 303.908 885.28 302.581Z" fill="#ECEBDA" fill-opacity="0.7"/>
<path d="M1007.42 29.1655C1011.99 29.2415 1016.32 29.0045 1020.36 29.961C1024.16 30.8611 1024.52 34.77 1022.26 38.6917C1019.53 43.4232 1016.92 48.263 1014.77 53.2723C1011.16 61.6579 1006.78 69.3306 998.394 73.8662C986.253 80.4354 974.53 88.126 961.73 93.0328C948.934 97.9384 936.604 103.287 925.145 110.687C924.518 111.092 923.876 111.597 923.175 111.745C912.721 113.96 906.933 121.501 901.618 129.823C895.504 139.397 888.689 148.542 882.801 158.245C873.469 173.623 873.487 190.491 876.63 207.435C878.095 215.336 885.203 218.437 891.886 220.892C896.002 222.404 900.642 222.696 905.087 223.097C911.273 223.654 916.164 227.098 918.166 232.909C919.496 236.771 917.376 239.334 914.186 240.365C908.708 242.135 903.042 244.007 897.364 244.347C886.538 244.995 875.446 245.9 864.837 244.287C852.594 242.426 840.521 238.591 828.831 234.369C822.558 232.103 818.437 226.53 818.981 218.944C819.746 208.261 820.616 197.579 821.074 186.881C821.334 180.819 820.306 180.397 814.561 182.616C805.146 186.254 795.864 190.219 785.354 189.782C775.771 189.383 771.8 185.433 770.576 175.928C768.558 160.263 775.034 148.569 786.764 139.028C793.848 133.265 801.321 127.941 808.113 121.863C829.219 102.977 855.548 95.1685 881.799 87.2084C902.38 80.9677 923.558 76.3284 943.548 68.6228C957.303 63.3205 969.491 54.0088 982.353 46.4452C985.24 44.7476 988.091 42.9706 990.83 41.0492C996.282 37.2238 1001.64 33.2728 1007.42 29.1655Z" fill="#ECEBDA" fill-opacity="0.7"/>
<path d="M833.363 743.676C831.466 746.833 829.703 749.584 827.786 752.224C825.285 755.67 822.617 758.996 820.101 762.43C816.291 767.629 812.02 771.738 804.702 770.496C803.158 770.234 801.434 771.039 799.79 771.335C792.534 772.64 785.699 772.401 778.363 769.969C764.553 765.391 750.876 765.497 739.02 776.114C728.114 785.88 718.983 797.062 711.103 809.271C706.312 816.693 699.673 821.035 691.274 823.816C681.181 827.157 671.347 831.35 661.601 835.621C651.269 840.149 645.451 849.291 640.127 858.472C632.49 871.642 621.33 879.667 606.791 883.975C600.592 885.812 594.872 889.235 588.917 891.896C587.389 892.579 585.625 893.874 584.253 893.581C576.353 891.892 568.145 890.713 560.824 887.567C555.318 885.201 555.724 877.375 560.892 872.195C567.087 865.986 573.376 859.822 580.078 854.169C590.913 845.031 602.782 837.009 613.007 827.27C626.746 814.183 640.355 800.71 652.138 785.927C664.284 770.69 676.661 755.998 692.016 743.868C695.806 740.874 699.038 737.191 702.614 733.92C713.651 723.824 728.317 722.353 741.702 717.848C755.862 713.082 770.275 708.942 784.096 703.357C789.909 701.009 794.362 695.483 799.653 691.703C811.318 683.369 822.837 674.785 834.944 667.122C849.288 658.042 864.167 649.789 878.871 641.274C880.924 640.084 883.238 638.91 885.538 638.651C891.156 638.015 894.293 642.452 892.182 647.688C891.631 649.054 890.766 650.306 889.962 651.558C884.246 660.465 878.495 669.351 872.791 678.266C871.89 679.674 870.884 681.113 870.414 682.682C865.878 697.819 854.575 707.495 842.555 716.493C838.578 719.47 835.977 722.553 835.778 727.839C835.585 732.988 834.258 738.095 833.363 743.676Z" fill="#ECEBDA" fill-opacity="0.7"/>
<path d="M38.5724 873.647C38.276 854.101 46.3016 838.796 61.0673 827.341C73.2611 817.881 86.0982 809.144 99.2433 801.032C103.88 798.171 110.212 797.443 115.879 796.937C123.313 796.272 131.016 795.846 138.303 797.073C145.254 798.243 152.153 801.037 158.445 804.308C163.11 806.733 164.099 811.925 162.71 817.112C159.596 828.747 154.721 839.592 146.614 848.631C139.572 856.483 132.388 864.301 124.525 871.316C114.328 880.414 101.166 883.546 88.2556 886.831C80.1079 888.904 71.9745 891.106 63.7243 892.682C58.6329 893.654 53.3358 893.822 48.1274 893.86C43.6575 893.892 40.7216 891.449 40.0931 886.862C39.5145 882.639 39.0749 878.398 38.5724 873.647ZM152.513 821.955C152.698 820.791 152.883 819.626 153.068 818.461C152.559 818.291 152.05 818.122 151.541 817.952C150.407 820.651 149.274 823.35 148.14 826.049C149.942 826.491 150.371 826.372 150.521 826.101C151.147 824.965 151.689 823.784 152.513 821.955Z" fill="#ECEBDA" fill-opacity="0.7"/>
<path d="M152.39 822.287C151.691 823.784 151.149 824.965 150.523 826.101C150.373 826.372 149.945 826.491 148.143 826.049C149.276 823.35 150.409 820.651 151.543 817.952C152.052 818.122 152.561 818.291 153.07 818.461C152.885 819.626 152.7 820.791 152.39 822.287Z" fill="#ECEBDA" fill-opacity="0.7"/>
</svg>
