<svg width="1176" height="96" viewBox="0 0 1176 96" fill="none" xmlns="http://www.w3.org/2000/svg">
<mask id="path-1-outside-1_2002_3" maskUnits="userSpaceOnUse" x="1" y="7" width="1171" height="82" fill="black">
<rect fill="white" x="1" y="7" width="1171" height="82"/>
<path d="M80.16 52.704C80.096 57.184 79.232 61.408 77.568 65.376C75.904 69.28 73.536 72.736 70.464 75.744C67.392 78.752 63.648 81.12 59.232 82.848C54.88 84.512 49.888 85.344 44.256 85.344C38.56 85.344 33.28 84.48 28.416 82.752C23.552 81.024 19.296 78.56 15.648 75.36C12.064 72.096 9.28 68.16 7.296 63.552C5.312 58.944 4.32 53.76 4.32 48C4.32 42.24 5.312 37.056 7.296 32.448C9.344 27.84 12.192 23.936 15.84 20.736C19.488 17.472 23.776 14.976 28.704 13.248C33.632 11.52 39.04 10.656 44.928 10.656C52.288 10.656 58.72 11.872 64.224 14.304C69.792 16.672 74.272 19.936 77.664 24.096C81.056 28.256 83.136 33.024 83.904 38.4H71.04C70.336 35.008 68.8 32.064 66.432 29.568C64.128 27.072 61.152 25.152 57.504 23.808C53.856 22.464 49.632 21.792 44.832 21.792C39.2 21.792 34.304 22.848 30.144 24.96C26.048 27.008 22.848 29.984 20.544 33.888C18.304 37.792 17.184 42.496 17.184 48C17.184 53.504 18.336 58.24 20.64 62.208C23.008 66.176 26.336 69.216 30.624 71.328C34.912 73.44 39.968 74.496 45.792 74.496C51.424 74.496 56.352 73.536 60.576 71.616C64.8 69.696 68.128 67.04 70.56 63.648C72.992 60.192 74.304 56.192 74.496 51.648L80.16 52.704ZM48.288 58.176V48.576H84.672V84H75.264L73.728 54.144L76.704 58.176H48.288ZM108.7 44.448H137.98C142.204 44.448 145.532 43.488 147.964 41.568C150.46 39.648 151.708 37.024 151.708 33.696C151.708 30.304 150.46 27.68 147.964 25.824C145.532 23.904 142.204 22.944 137.98 22.944H106.876L112.54 15.84V84H99.8677V12H139.132C144.188 12 148.604 12.928 152.38 14.784C156.22 16.576 159.196 19.104 161.308 22.368C163.484 25.568 164.572 29.344 164.572 33.696C164.572 37.92 163.484 41.664 161.308 44.928C159.196 48.128 156.22 50.656 152.38 52.512C148.604 54.304 144.188 55.2 139.132 55.2H108.7V44.448ZM122.908 50.304H137.788L166.396 84H151.228L122.908 50.304ZM186.553 67.488V57.024H236.857V67.488H186.553ZM219.961 12L254.521 84H240.985L209.593 16.8H214.489L183.097 84H169.561L204.121 12H219.961ZM302.369 12C307.745 12 312.385 12.96 316.289 14.88C320.257 16.8 323.297 19.488 325.409 22.944C327.585 26.336 328.673 30.272 328.673 34.752C328.673 39.232 327.585 43.2 325.409 46.656C323.297 50.048 320.257 52.704 316.289 54.624C312.385 56.544 307.745 57.504 302.369 57.504H270.017V46.56H301.889C306.241 46.56 309.633 45.504 312.065 43.392C314.561 41.28 315.809 38.4 315.809 34.752C315.809 31.104 314.561 28.224 312.065 26.112C309.633 24 306.241 22.944 301.889 22.944H271.265L276.929 16.608V84H264.257V12H302.369ZM340.029 12H352.701V84H340.029V12ZM398.589 12H411.261V84H398.589V12ZM346.845 42.144H404.637V53.28H346.845V42.144ZM428.364 12H441.036V84H428.364V12ZM534.041 55.488C533.401 61.376 531.321 66.592 527.801 71.136C524.345 75.616 519.801 79.104 514.169 81.6C508.537 84.096 502.105 85.344 494.873 85.344C486.809 85.344 479.737 83.776 473.657 80.64C467.577 77.504 462.841 73.152 459.449 67.584C456.057 61.952 454.361 55.424 454.361 48C454.361 40.576 456.057 34.08 459.449 28.512C462.841 22.88 467.577 18.496 473.657 15.36C479.737 12.224 486.809 10.656 494.873 10.656C502.105 10.656 508.537 11.904 514.169 14.4C519.801 16.896 524.345 20.384 527.801 24.864C531.321 29.344 533.401 34.56 534.041 40.512H521.273C520.569 36.672 519.033 33.376 516.665 30.624C514.361 27.872 511.353 25.76 507.641 24.288C503.929 22.752 499.641 21.984 494.777 21.984C489.145 21.984 484.249 23.04 480.089 25.152C475.993 27.264 472.825 30.272 470.585 34.176C468.345 38.08 467.225 42.688 467.225 48C467.225 53.312 468.345 57.92 470.585 61.824C472.825 65.728 475.993 68.736 480.089 70.848C484.249 72.96 489.145 74.016 494.777 74.016C499.641 74.016 503.929 73.28 507.641 71.808C511.353 70.336 514.361 68.224 516.665 65.472C519.033 62.656 520.569 59.328 521.273 55.488H534.041ZM605.538 12C613.73 12 620.898 13.504 627.042 16.512C633.25 19.52 638.082 23.744 641.538 29.184C644.994 34.56 646.722 40.832 646.722 48C646.722 55.168 644.994 61.472 641.538 66.912C638.082 72.288 633.25 76.48 627.042 79.488C620.898 82.496 613.73 84 605.538 84H572.994V12H605.538ZM585.666 79.584L578.658 72.864H606.402C611.906 72.864 616.706 71.84 620.802 69.792C624.962 67.68 628.162 64.768 630.402 61.056C632.706 57.28 633.858 52.928 633.858 48C633.858 43.008 632.706 38.656 630.402 34.944C628.162 31.232 624.962 28.352 620.802 26.304C616.706 24.192 611.906 23.136 606.402 23.136H578.658L585.666 16.416V79.584ZM716.864 42.72V53.28H666.56V42.72H716.864ZM674.912 48L669.824 80.16L663.776 73.056H719.648V84H656.864L662.624 48L656.864 12H719.168V22.944H663.776L669.824 15.84L674.912 48ZM729.404 60.576H742.268C742.652 63.456 743.836 65.984 745.82 68.16C747.868 70.336 750.556 72.032 753.884 73.248C757.212 74.4 761.052 74.976 765.404 74.976C771.868 74.976 776.988 73.984 780.764 72C784.54 69.952 786.428 67.2 786.428 63.744C786.428 60.928 785.34 58.816 783.164 57.408C780.988 56 777.052 54.944 771.356 54.24L755.804 52.224C747.1 51.072 740.764 48.928 736.796 45.792C732.892 42.592 730.94 38.08 730.94 32.256C730.94 27.84 732.252 24.032 734.876 20.832C737.564 17.568 741.34 15.072 746.204 13.344C751.068 11.552 756.764 10.656 763.292 10.656C769.756 10.656 775.484 11.616 780.476 13.536C785.468 15.456 789.436 18.144 792.38 21.6C795.388 24.992 797.02 28.992 797.276 33.6H784.412C784.092 31.04 783.004 28.832 781.148 26.976C779.356 25.12 776.924 23.68 773.852 22.656C770.78 21.568 767.164 21.024 763.004 21.024C757.116 21.024 752.412 21.984 748.892 23.904C745.372 25.824 743.612 28.448 743.612 31.776C743.612 34.336 744.636 36.32 746.684 37.728C748.796 39.072 752.444 40.096 757.628 40.8L773.372 43.008C779.836 43.904 784.924 45.12 788.636 46.656C792.412 48.128 795.1 50.144 796.7 52.704C798.3 55.2 799.1 58.432 799.1 62.4C799.1 67.008 797.692 71.04 794.876 74.496C792.06 77.952 788.092 80.64 782.972 82.56C777.916 84.416 771.996 85.344 765.212 85.344C758.3 85.344 752.188 84.32 746.876 82.272C741.628 80.16 737.468 77.248 734.396 73.536C731.324 69.824 729.66 65.504 729.404 60.576ZM811.843 12H824.515V84H811.843V12ZM913.68 52.704C913.616 57.184 912.752 61.408 911.088 65.376C909.424 69.28 907.056 72.736 903.984 75.744C900.912 78.752 897.168 81.12 892.752 82.848C888.4 84.512 883.408 85.344 877.776 85.344C872.08 85.344 866.8 84.48 861.936 82.752C857.072 81.024 852.816 78.56 849.168 75.36C845.584 72.096 842.8 68.16 840.816 63.552C838.832 58.944 837.84 53.76 837.84 48C837.84 42.24 838.832 37.056 840.816 32.448C842.864 27.84 845.712 23.936 849.36 20.736C853.008 17.472 857.296 14.976 862.224 13.248C867.152 11.52 872.56 10.656 878.448 10.656C885.808 10.656 892.24 11.872 897.744 14.304C903.312 16.672 907.792 19.936 911.184 24.096C914.576 28.256 916.656 33.024 917.424 38.4H904.56C903.856 35.008 902.32 32.064 899.952 29.568C897.648 27.072 894.672 25.152 891.024 23.808C887.376 22.464 883.152 21.792 878.352 21.792C872.72 21.792 867.824 22.848 863.664 24.96C859.568 27.008 856.368 29.984 854.064 33.888C851.824 37.792 850.704 42.496 850.704 48C850.704 53.504 851.856 58.24 854.16 62.208C856.528 66.176 859.856 69.216 864.144 71.328C868.432 73.44 873.488 74.496 879.312 74.496C884.944 74.496 889.872 73.536 894.096 71.616C898.32 69.696 901.648 67.04 904.08 63.648C906.512 60.192 907.824 56.192 908.016 51.648L913.68 52.704ZM881.808 58.176V48.576H918.192V84H908.784L907.248 54.144L910.224 58.176H881.808ZM1000.11 76.32L994.924 76.896V12H1007.21V84H991.084L940.588 19.104L945.676 18.528V84H933.388V12H949.9L1000.11 76.32ZM1081.76 42.72V53.28H1031.45V42.72H1081.76ZM1039.81 48L1034.72 80.16L1028.67 73.056H1084.54V84H1021.76L1027.52 48L1021.76 12H1084.06V22.944H1028.67L1034.72 15.84L1039.81 48ZM1107.55 44.448H1136.83C1141.05 44.448 1144.38 43.488 1146.81 41.568C1149.31 39.648 1150.55 37.024 1150.55 33.696C1150.55 30.304 1149.31 27.68 1146.81 25.824C1144.38 23.904 1141.05 22.944 1136.83 22.944H1105.72L1111.39 15.84V84H1098.71V12H1137.98C1143.03 12 1147.45 12.928 1151.23 14.784C1155.07 16.576 1158.04 19.104 1160.15 22.368C1162.33 25.568 1163.42 29.344 1163.42 33.696C1163.42 37.92 1162.33 41.664 1160.15 44.928C1158.04 48.128 1155.07 50.656 1151.23 52.512C1147.45 54.304 1143.03 55.2 1137.98 55.2H1107.55V44.448ZM1121.75 50.304H1136.63L1165.24 84H1150.07L1121.75 50.304Z"/>
</mask>
<path d="M80.16 52.704L83.1597 52.7469L83.1958 50.2183L80.7099 49.7548L80.16 52.704ZM77.568 65.376L80.3278 66.5523L80.3312 66.5442L80.3346 66.5362L77.568 65.376ZM70.464 75.744L68.3651 73.6005L68.3651 73.6005L70.464 75.744ZM59.232 82.848L60.3034 85.6502L60.3143 85.646L60.3252 85.6417L59.232 82.848ZM28.416 82.752L27.4117 85.5789L27.4117 85.5789L28.416 82.752ZM15.648 75.36L13.628 77.578L13.6487 77.5968L13.6697 77.6153L15.648 75.36ZM7.296 32.448L4.55457 31.2296L4.54746 31.2456L4.54055 31.2616L7.296 32.448ZM15.84 20.736L17.8183 22.9913L17.8294 22.9816L17.8404 22.9717L15.84 20.736ZM28.704 13.248L29.6967 16.079L29.6967 16.079L28.704 13.248ZM64.224 14.304L63.0115 17.0481L63.0307 17.0565L63.0499 17.0647L64.224 14.304ZM77.664 24.096L75.3389 25.9918L75.3389 25.9918L77.664 24.096ZM83.904 38.4V41.4H87.363L86.8738 37.9757L83.904 38.4ZM71.04 38.4L68.1026 39.0096L68.5987 41.4H71.04V38.4ZM66.432 29.568L64.2276 31.6028L64.2415 31.6179L64.2556 31.6328L66.432 29.568ZM57.504 23.808L58.5411 20.993L58.5411 20.993L57.504 23.808ZM30.144 24.96L31.4856 27.6433L31.4939 27.6392L31.5021 27.635L30.144 24.96ZM20.544 33.888L17.9604 32.3632L17.951 32.3791L17.9419 32.395L20.544 33.888ZM20.64 62.208L18.0456 63.7144L18.0547 63.7299L18.0639 63.7454L20.64 62.208ZM30.624 71.328L29.2985 74.0193L29.2985 74.0193L30.624 71.328ZM60.576 71.616L61.8174 74.3471L61.8174 74.3471L60.576 71.616ZM70.56 63.648L72.9981 65.3961L73.0058 65.3853L73.0134 65.3745L70.56 63.648ZM74.496 51.648L75.0458 48.6988L71.6447 48.0647L71.4987 51.5214L74.496 51.648ZM48.288 58.176H45.288V61.176H48.288V58.176ZM48.288 48.576V45.576H45.288V48.576H48.288ZM84.672 48.576H87.672V45.576H84.672V48.576ZM84.672 84V87H87.672V84H84.672ZM75.264 84L72.268 84.1541L72.4144 87H75.264V84ZM73.728 54.144L76.1417 52.3624L70.2196 44.3389L70.732 54.2981L73.728 54.144ZM76.704 58.176V61.176H82.647L79.1177 56.3944L76.704 58.176ZM77.1603 52.6611C77.1016 56.7733 76.3108 60.6165 74.8014 64.2158L80.3346 66.5362C82.1532 62.1995 83.0904 57.5946 83.1597 52.7469L77.1603 52.6611ZM74.8082 64.1997C73.3009 67.7361 71.1592 70.8646 68.3651 73.6005L72.5629 77.8875C75.9128 74.6074 78.5071 70.8239 80.3278 66.5523L74.8082 64.1997ZM68.3651 73.6005C65.6096 76.2986 62.2181 78.458 58.1388 80.0543L60.3252 85.6417C65.0779 83.782 69.1744 81.2054 72.5629 77.8875L68.3651 73.6005ZM58.1606 80.0458C54.2138 81.5549 49.5961 82.344 44.256 82.344V88.344C50.1799 88.344 55.5462 87.4691 60.3034 85.6502L58.1606 80.0458ZM44.256 82.344C38.8669 82.344 33.9302 81.5273 29.4203 79.9251L27.4117 85.5789C32.6298 87.4327 38.2531 88.344 44.256 88.344V82.344ZM29.4203 79.9251C24.8912 78.3161 20.9709 76.0386 17.6263 73.1047L13.6697 77.6153C17.6211 81.0814 22.2128 83.7319 27.4117 85.5789L29.4203 79.9251ZM17.668 73.142C14.4109 70.1757 11.8726 66.5954 10.0515 62.3656L4.54055 64.7384C6.68741 69.7246 9.71708 74.0163 13.628 77.578L17.668 73.142ZM10.0515 62.3656C8.25095 58.1838 7.32 53.4121 7.32 48H1.32C1.32 54.1079 2.37305 59.7042 4.54055 64.7384L10.0515 62.3656ZM7.32 48C7.32 42.5879 8.25095 37.8162 10.0515 33.6344L4.54055 31.2616C2.37305 36.2958 1.32 41.8921 1.32 48H7.32ZM10.0374 33.6664C11.9162 29.4392 14.5096 25.8937 17.8183 22.9913L13.8617 18.4807C9.87442 21.9783 6.77183 26.2407 4.55457 31.2296L10.0374 33.6664ZM17.8404 22.9717C21.1756 19.9876 25.1153 17.6855 29.6967 16.079L27.7113 10.417C22.4367 12.2665 17.8004 14.9564 13.8396 18.5003L17.8404 22.9717ZM29.6967 16.079C34.2678 14.4761 39.3354 13.656 44.928 13.656V7.65599C38.7446 7.65599 32.9962 8.56385 27.7113 10.417L29.6967 16.079ZM44.928 13.656C51.9614 13.656 57.9647 14.8181 63.0115 17.0481L65.4365 11.5599C59.4753 8.92593 52.6146 7.65599 44.928 7.65599V13.656ZM63.0499 17.0647C68.2275 19.2667 72.2921 22.2551 75.3389 25.9918L79.9891 22.2002C76.252 17.6169 71.3565 14.0773 65.3981 11.5433L63.0499 17.0647ZM75.3389 25.9918C78.382 29.7238 80.2423 33.9816 80.9342 38.8243L86.8738 37.9757C86.0297 32.0664 83.73 26.7882 79.9891 22.2002L75.3389 25.9918ZM83.904 35.4H71.04V41.4H83.904V35.4ZM73.9774 37.7903C73.1608 33.856 71.3633 30.407 68.6084 27.5032L64.2556 31.6328C66.2368 33.721 67.5112 36.16 68.1026 39.0096L73.9774 37.7903ZM68.6364 27.5332C65.9668 24.6411 62.5697 22.4772 58.5411 20.993L56.4669 26.623C59.7343 27.8268 62.2892 29.5029 64.2276 31.6028L68.6364 27.5332ZM58.5411 20.993C54.4934 19.5017 49.9058 18.792 44.832 18.792V24.792C49.3582 24.792 53.2186 25.4263 56.4669 26.623L58.5411 20.993ZM44.832 18.792C38.8247 18.792 33.4452 19.9195 28.7859 22.285L31.5021 27.635C35.1628 25.7765 39.5753 24.792 44.832 24.792V18.792ZM28.8024 22.2767C24.195 24.5804 20.5613 27.9561 17.9604 32.3632L23.1276 35.4128C25.1347 32.0119 27.901 29.4356 31.4856 27.6433L28.8024 22.2767ZM17.9419 32.395C15.3889 36.8445 14.184 42.0882 14.184 48H20.184C20.184 42.9038 21.2191 38.7395 23.1461 35.381L17.9419 32.395ZM14.184 48C14.184 53.9274 15.4274 59.2053 18.0456 63.7144L23.2344 60.7016C21.2446 57.2747 20.184 53.0806 20.184 48H14.184ZM18.0639 63.7454C20.7392 68.2284 24.5098 71.6607 29.2985 74.0193L31.9496 68.6367C28.1622 66.7713 25.2768 64.1236 23.2161 60.6706L18.0639 63.7454ZM29.2985 74.0193C34.0791 76.3739 39.6071 77.496 45.792 77.496V71.496C40.3289 71.496 35.7449 70.5061 31.9495 68.6367L29.2985 74.0193ZM45.792 77.496C51.7625 77.496 57.1294 76.478 61.8174 74.3471L59.3346 68.8849C55.5746 70.594 51.0855 71.496 45.792 71.496V77.496ZM61.8174 74.3471C66.4648 72.2346 70.2269 69.2611 72.9981 65.3961L68.1219 61.8999C66.0291 64.8189 63.1352 67.1574 59.3346 68.8849L61.8174 74.3471ZM73.0134 65.3745C75.8016 61.4123 77.279 56.8473 77.4933 51.7746L71.4987 51.5214C71.329 55.5367 70.1824 58.9717 68.1066 61.9215L73.0134 65.3745ZM73.9462 54.5972L79.6102 55.6532L80.7099 49.7548L75.0458 48.6988L73.9462 54.5972ZM51.288 58.176V48.576H45.288V58.176H51.288ZM48.288 51.576H84.672V45.576H48.288V51.576ZM81.672 48.576V84H87.672V48.576H81.672ZM84.672 81H75.264V87H84.672V81ZM78.26 83.8459L76.724 53.9899L70.732 54.2981L72.268 84.1541L78.26 83.8459ZM71.3143 55.9256L74.2903 59.9576L79.1177 56.3944L76.1417 52.3624L71.3143 55.9256ZM76.704 55.176H48.288V61.176H76.704V55.176ZM108.7 44.448V41.448H105.7V44.448H108.7ZM147.964 41.568L146.135 39.1901L146.12 39.2016L146.105 39.2133L147.964 41.568ZM147.964 25.824L146.105 28.1786L146.139 28.2055L146.174 28.2314L147.964 25.824ZM106.876 22.944L104.53 21.0738L100.647 25.944H106.876V22.944ZM112.54 15.84H115.54V7.26501L110.194 13.9698L112.54 15.84ZM112.54 84V87H115.54V84H112.54ZM99.8677 84H96.8677V87H99.8677V84ZM99.8677 12V8.99999H96.8677V12H99.8677ZM152.38 14.784L151.056 17.4763L151.084 17.4897L151.111 17.5025L152.38 14.784ZM161.308 22.368L158.789 23.9978L158.808 24.0266L158.827 24.0549L161.308 22.368ZM161.308 44.928L158.812 43.2639L158.804 43.2755L161.308 44.928ZM152.38 52.512L153.666 55.2223L153.676 55.2177L153.685 55.213L152.38 52.512ZM108.7 55.2H105.7V58.2H108.7V55.2ZM122.908 50.304V47.304H116.468L120.611 52.2342L122.908 50.304ZM137.788 50.304L140.075 48.3624L139.176 47.304H137.788V50.304ZM166.396 84V87H172.878L168.683 82.0584L166.396 84ZM151.228 84L148.931 85.9302L149.83 87H151.228V84ZM108.7 47.448H137.98V41.448H108.7V47.448ZM137.98 47.448C142.635 47.448 146.698 46.3897 149.823 43.9226L146.105 39.2133C144.366 40.5863 141.772 41.448 137.98 41.448V47.448ZM149.793 43.9459C153.075 41.4215 154.708 37.8939 154.708 33.696H148.708C148.708 36.1541 147.845 37.8745 146.135 39.1901L149.793 43.9459ZM154.708 33.696C154.708 29.4549 153.088 25.8955 149.754 23.4166L146.174 28.2314C147.832 29.4645 148.708 31.1531 148.708 33.696H154.708ZM149.823 23.4694C146.698 21.0023 142.635 19.944 137.98 19.944V25.944C141.772 25.944 144.366 26.8057 146.105 28.1786L149.823 23.4694ZM137.98 19.944H106.876V25.944H137.98V19.944ZM109.221 24.8142L114.885 17.7102L110.194 13.9698L104.53 21.0738L109.221 24.8142ZM109.54 15.84V84H115.54V15.84H109.54ZM112.54 81H99.8677V87H112.54V81ZM102.868 84V12H96.8677V84H102.868ZM99.8677 15H139.132V8.99999H99.8677V15ZM139.132 15C143.82 15 147.767 15.8595 151.056 17.4763L153.703 12.0917C149.44 9.99644 144.555 8.99999 139.132 8.99999V15ZM151.111 17.5025C154.488 19.0785 157.011 21.2492 158.789 23.9978L163.826 20.7382C161.381 16.9588 157.951 14.0735 153.648 12.0654L151.111 17.5025ZM158.827 24.0549C160.623 26.6968 161.572 29.8679 161.572 33.696H167.572C167.572 28.8201 166.344 24.4392 163.789 20.6811L158.827 24.0549ZM161.572 33.696C161.572 37.3754 160.634 40.5309 158.812 43.2639L163.804 46.5921C166.334 42.7971 167.572 38.4646 167.572 33.696H161.572ZM158.804 43.2755C157.022 45.9751 154.484 48.163 151.074 49.811L153.685 55.213C157.956 53.149 161.369 50.2809 163.812 46.5805L158.804 43.2755ZM151.094 49.8017C147.795 51.3672 143.835 52.2 139.132 52.2V58.2C144.541 58.2 149.413 57.2408 153.666 55.2223L151.094 49.8017ZM139.132 52.2H108.7V58.2H139.132V52.2ZM111.7 55.2V44.448H105.7V55.2H111.7ZM122.908 53.304H137.788V47.304H122.908V53.304ZM135.501 52.2456L164.109 85.9416L168.683 82.0584L140.075 48.3624L135.501 52.2456ZM166.396 81H151.228V87H166.396V81ZM153.524 82.0698L125.204 48.3738L120.611 52.2342L148.931 85.9302L153.524 82.0698ZM186.553 67.488H183.553V70.488H186.553V67.488ZM186.553 57.024V54.024H183.553V57.024H186.553ZM236.857 57.024H239.857V54.024H236.857V57.024ZM236.857 67.488V70.488H239.857V67.488H236.857ZM219.961 12L222.665 10.7018L221.848 8.99999H219.961V12ZM254.521 84V87H259.288L257.225 82.7018L254.521 84ZM240.985 84L238.267 85.2697L239.075 87H240.985V84ZM209.593 16.8V13.8H204.88L206.875 18.0697L209.593 16.8ZM214.489 16.8L217.207 18.0697L219.201 13.8H214.489V16.8ZM183.097 84V87H185.007L185.815 85.2697L183.097 84ZM169.561 84L166.856 82.7018L164.793 87H169.561V84ZM204.121 12V8.99999H202.233L201.416 10.7018L204.121 12ZM189.553 67.488V57.024H183.553V67.488H189.553ZM186.553 60.024H236.857V54.024H186.553V60.024ZM233.857 57.024V67.488H239.857V57.024H233.857ZM236.857 64.488H186.553V70.488H236.857V64.488ZM217.256 13.2982L251.816 85.2982L257.225 82.7018L222.665 10.7018L217.256 13.2982ZM254.521 81H240.985V87H254.521V81ZM243.703 82.7303L212.311 15.5303L206.875 18.0697L238.267 85.2697L243.703 82.7303ZM209.593 19.8H214.489V13.8H209.593V19.8ZM211.771 15.5303L180.379 82.7303L185.815 85.2697L217.207 18.0697L211.771 15.5303ZM183.097 81H169.561V87H183.097V81ZM172.265 85.2982L206.825 13.2982L201.416 10.7018L166.856 82.7018L172.265 85.2982ZM204.121 15H219.961V8.99999H204.121V15ZM316.289 14.88L314.965 17.572L314.973 17.5763L314.982 17.5805L316.289 14.88ZM325.409 22.944L322.849 24.5083L322.866 24.5363L322.883 24.5639L325.409 22.944ZM325.409 46.656L322.87 45.0576L322.866 45.0639L322.862 45.0703L325.409 46.656ZM316.289 54.624L314.982 51.9235L314.973 51.9277L314.965 51.9319L316.289 54.624ZM270.017 57.504H267.017V60.504H270.017V57.504ZM270.017 46.56V43.56H267.017V46.56H270.017ZM312.065 43.392L310.127 41.1018L310.112 41.1143L310.097 41.1269L312.065 43.392ZM312.065 26.112L310.097 28.3771L310.112 28.3897L310.127 28.4022L312.065 26.112ZM271.265 22.944L269.028 20.9446L264.559 25.944H271.265V22.944ZM276.929 16.608H279.929V8.7507L274.692 14.6086L276.929 16.608ZM276.929 84V87H279.929V84H276.929ZM264.257 84H261.257V87H264.257V84ZM264.257 12V8.99999H261.257V12H264.257ZM302.369 15C307.391 15 311.558 15.8967 314.965 17.572L317.612 12.1879C313.211 10.0233 308.098 8.99999 302.369 8.99999V15ZM314.982 17.5805C318.479 19.2729 321.063 21.5867 322.849 24.5083L327.968 21.3796C325.53 17.3893 322.034 14.3271 317.595 12.1795L314.982 17.5805ZM322.883 24.5639C324.715 27.4195 325.673 30.78 325.673 34.752H331.673C331.673 29.764 330.454 25.2525 327.934 21.3241L322.883 24.5639ZM325.673 34.752C325.673 38.7232 324.716 42.1262 322.87 45.0576L327.947 48.2544C330.454 44.2738 331.673 39.7408 331.673 34.752H325.673ZM322.862 45.0703C321.08 47.9321 318.494 50.2241 314.982 51.9235L317.595 57.3245C322.019 55.1839 325.513 52.1639 327.955 48.2417L322.862 45.0703ZM314.965 51.9319C311.558 53.6073 307.391 54.504 302.369 54.504V60.504C308.098 60.504 313.211 59.4807 317.612 57.316L314.965 51.9319ZM302.369 54.504H270.017V60.504H302.369V54.504ZM273.017 57.504V46.56H267.017V57.504H273.017ZM270.017 49.56H301.889V43.56H270.017V49.56ZM301.889 49.56C306.708 49.56 310.888 48.3874 314.032 45.6571L310.097 41.1269C308.377 42.6206 305.773 43.56 301.889 43.56V49.56ZM314.002 45.6822C317.255 42.9299 318.809 39.1676 318.809 34.752H312.809C312.809 37.6324 311.866 39.6301 310.127 41.1018L314.002 45.6822ZM318.809 34.752C318.809 30.3364 317.255 26.5741 314.002 23.8218L310.127 28.4022C311.866 29.8739 312.809 31.8716 312.809 34.752H318.809ZM314.032 23.8469C310.888 21.1166 306.708 19.944 301.889 19.944V25.944C305.773 25.944 308.377 26.8834 310.097 28.3771L314.032 23.8469ZM301.889 19.944H271.265V25.944H301.889V19.944ZM273.501 24.9434L279.165 18.6074L274.692 14.6086L269.028 20.9446L273.501 24.9434ZM273.929 16.608V84H279.929V16.608H273.929ZM276.929 81H264.257V87H276.929V81ZM267.257 84V12H261.257V84H267.257ZM264.257 15H302.369V8.99999H264.257V15ZM340.029 12V8.99999H337.029V12H340.029ZM352.701 12H355.701V8.99999H352.701V12ZM352.701 84V87H355.701V84H352.701ZM340.029 84H337.029V87H340.029V84ZM398.589 12V8.99999H395.589V12H398.589ZM411.261 12H414.261V8.99999H411.261V12ZM411.261 84V87H414.261V84H411.261ZM398.589 84H395.589V87H398.589V84ZM346.845 42.144V39.144H343.845V42.144H346.845ZM404.637 42.144H407.637V39.144H404.637V42.144ZM404.637 53.28V56.28H407.637V53.28H404.637ZM346.845 53.28H343.845V56.28H346.845V53.28ZM340.029 15H352.701V8.99999H340.029V15ZM349.701 12V84H355.701V12H349.701ZM352.701 81H340.029V87H352.701V81ZM343.029 84V12H337.029V84H343.029ZM398.589 15H411.261V8.99999H398.589V15ZM408.261 12V84H414.261V12H408.261ZM411.261 81H398.589V87H411.261V81ZM401.589 84V12H395.589V84H401.589ZM346.845 45.144H404.637V39.144H346.845V45.144ZM401.637 42.144V53.28H407.637V42.144H401.637ZM404.637 50.28H346.845V56.28H404.637V50.28ZM349.845 53.28V42.144H343.845V53.28H349.845ZM428.364 12V8.99999H425.364V12H428.364ZM441.036 12H444.036V8.99999H441.036V12ZM441.036 84V87H444.036V84H441.036ZM428.364 84H425.364V87H428.364V84ZM428.364 15H441.036V8.99999H428.364V15ZM438.036 12V84H444.036V12H438.036ZM441.036 81H428.364V87H441.036V81ZM431.364 84V12H425.364V84H431.364ZM534.041 55.488L537.024 55.8122L537.385 52.488H534.041V55.488ZM527.801 71.136L525.43 69.2988L525.426 69.3036L527.801 71.136ZM514.169 81.6L515.385 84.3427L515.385 84.3427L514.169 81.6ZM473.657 80.64L472.282 83.3062L472.282 83.3062L473.657 80.64ZM459.449 67.584L456.879 69.1318L456.883 69.1383L456.887 69.1448L459.449 67.584ZM459.449 28.512L462.011 30.0728L462.015 30.0663L462.019 30.0598L459.449 28.512ZM473.657 15.36L472.282 12.6938L472.282 12.6938L473.657 15.36ZM514.169 14.4L512.954 17.1427L512.954 17.1427L514.169 14.4ZM527.801 24.864L525.426 26.6964L525.434 26.707L525.442 26.7175L527.801 24.864ZM534.041 40.512V43.512H537.381L537.024 40.1913L534.041 40.512ZM521.273 40.512L518.322 41.053L518.773 43.512H521.273V40.512ZM516.665 30.624L514.365 32.5498L514.378 32.5654L514.391 32.5807L516.665 30.624ZM507.641 24.288L506.494 27.06L506.515 27.0685L506.535 27.0767L507.641 24.288ZM480.089 25.152L478.731 22.477L478.723 22.4813L478.714 22.4856L480.089 25.152ZM470.585 34.176L467.983 32.683L467.983 32.683L470.585 34.176ZM470.585 61.824L473.187 60.331L473.187 60.331L470.585 61.824ZM480.089 70.848L478.714 73.5144L478.723 73.5187L478.731 73.523L480.089 70.848ZM507.641 71.808L506.535 69.0193L506.535 69.0193L507.641 71.808ZM516.665 65.472L514.369 63.5412L514.365 63.5462L516.665 65.472ZM521.273 55.488V52.488H518.773L518.322 54.947L521.273 55.488ZM531.059 55.1638C530.477 60.5184 528.599 65.2068 525.43 69.2988L530.173 72.9732C534.043 67.9772 536.326 62.2336 537.024 55.8122L531.059 55.1638ZM525.426 69.3036C522.301 73.354 518.171 76.5451 512.954 78.8573L515.385 84.3427C521.432 81.6629 526.389 77.878 530.177 72.9684L525.426 69.3036ZM512.954 78.8573C507.765 81.1567 501.759 82.344 494.873 82.344V88.344C502.452 88.344 509.309 87.0353 515.385 84.3427L512.954 78.8573ZM494.873 82.344C487.202 82.344 480.617 80.8544 475.032 77.9738L472.282 83.3062C478.857 86.6976 486.416 88.344 494.873 88.344V82.344ZM475.032 77.9738C469.417 75.0773 465.102 71.0971 462.011 66.0232L456.887 69.1448C460.58 75.2069 465.738 79.9307 472.282 83.3062L475.032 77.9738ZM462.019 66.0362C458.944 60.9296 457.361 54.9507 457.361 48H451.361C451.361 55.8973 453.171 62.9744 456.879 69.1318L462.019 66.0362ZM457.361 48C457.361 41.0486 458.944 35.1081 462.011 30.0728L456.887 26.9512C453.171 33.0519 451.361 40.1034 451.361 48H457.361ZM462.019 30.0598C465.112 24.924 469.426 20.9182 475.032 18.0262L472.282 12.6938C465.729 16.0738 460.57 20.836 456.879 26.9642L462.019 30.0598ZM475.032 18.0262C480.617 15.1456 487.202 13.656 494.873 13.656V7.65599C486.416 7.65599 478.857 9.30241 472.282 12.6938L475.032 18.0262ZM494.873 13.656C501.759 13.656 507.765 14.8433 512.954 17.1427L515.385 11.6573C509.309 8.9647 502.452 7.65599 494.873 7.65599V13.656ZM512.954 17.1427C518.171 19.4549 522.301 22.646 525.426 26.6964L530.177 23.0316C526.389 18.1219 521.432 14.3371 515.385 11.6573L512.954 17.1427ZM525.442 26.7175C528.597 30.7322 530.475 35.4103 531.058 40.8327L537.024 40.1913C536.327 33.7097 534.046 27.9558 530.16 23.0105L525.442 26.7175ZM534.041 37.512H521.273V43.512H534.041V37.512ZM524.224 39.971C523.432 35.6482 521.681 31.8531 518.939 28.6673L514.391 32.5807C516.386 34.8989 517.707 37.6958 518.322 41.053L524.224 39.971ZM518.966 28.6982C516.307 25.5221 512.87 23.1341 508.747 21.4993L506.535 27.0767C509.837 28.3859 512.416 30.2218 514.365 32.5498L518.966 28.6982ZM508.788 21.5159C504.645 19.8013 499.954 18.984 494.777 18.984V24.984C499.329 24.984 503.214 25.7027 506.494 27.06L508.788 21.5159ZM494.777 18.984C488.77 18.984 483.391 20.1115 478.731 22.477L481.447 27.827C485.108 25.9685 489.521 24.984 494.777 24.984V18.984ZM478.714 22.4856C474.118 24.8557 470.518 28.2653 467.983 32.683L473.187 35.669C475.133 32.2787 477.869 29.6723 481.464 27.8184L478.714 22.4856ZM467.983 32.683C465.439 37.1172 464.225 42.259 464.225 48H470.225C470.225 43.1169 471.252 39.0428 473.187 35.669L467.983 32.683ZM464.225 48C464.225 53.7409 465.439 58.8828 467.983 63.317L473.187 60.331C471.252 56.9572 470.225 52.883 470.225 48H464.225ZM467.983 63.317C470.518 67.7347 474.118 71.1443 478.714 73.5144L481.464 68.1816C477.869 66.3277 475.133 63.7213 473.187 60.331L467.983 63.317ZM478.731 73.523C483.391 75.8885 488.77 77.016 494.777 77.016V71.016C489.521 71.016 485.108 70.0315 481.447 68.173L478.731 73.523ZM494.777 77.016C499.94 77.016 504.616 76.2351 508.747 74.5967L506.535 69.0193C503.243 70.3249 499.343 71.016 494.777 71.016V77.016ZM508.747 74.5967C512.87 72.9619 516.307 70.5738 518.966 67.3978L514.365 63.5462C512.416 65.8742 509.837 67.7101 506.535 69.0193L508.747 74.5967ZM518.961 67.4028C521.685 64.1637 523.432 60.3488 524.224 56.029L518.322 54.947C517.706 58.3072 516.381 61.1483 514.369 63.5412L518.961 67.4028ZM521.273 58.488H534.041V52.488H521.273V58.488ZM627.042 16.512L625.723 19.2064L625.734 19.2118L627.042 16.512ZM641.538 29.184L639.006 30.7927L639.01 30.7995L639.014 30.8063L641.538 29.184ZM641.538 66.912L644.062 68.5343L644.066 68.5275L644.07 68.5207L641.538 66.912ZM627.042 79.488L625.734 76.7882L625.723 76.7936L627.042 79.488ZM572.994 84H569.994V87H572.994V84ZM572.994 12V8.99999H569.994V12H572.994ZM585.666 79.584L583.59 81.7493L588.666 86.6171V79.584H585.666ZM578.658 72.864V69.864H571.195L576.582 75.0293L578.658 72.864ZM620.802 69.792L622.144 72.4753L622.152 72.4712L622.16 72.467L620.802 69.792ZM630.402 61.056L627.841 59.4934L627.837 59.4997L627.833 59.506L630.402 61.056ZM630.402 34.944L627.833 36.494L627.843 36.5101L627.853 36.5261L630.402 34.944ZM620.802 26.304L619.427 28.9704L619.452 28.9832L619.477 28.9955L620.802 26.304ZM578.658 23.136L576.582 20.9707L571.195 26.136H578.658V23.136ZM585.666 16.416H588.666V9.3829L583.59 14.2506L585.666 16.416ZM605.538 15C613.362 15 620.063 16.4354 625.723 19.2064L628.361 13.8176C621.733 10.5726 614.098 8.99999 605.538 8.99999V15ZM625.734 19.2118C631.477 21.9946 635.87 25.8563 639.006 30.7927L644.07 27.5753C640.294 21.6317 635.023 17.0454 628.35 13.8122L625.734 19.2118ZM639.014 30.8063C642.123 35.6411 643.722 41.3351 643.722 48H649.722C649.722 40.3289 647.865 33.4789 644.062 27.5617L639.014 30.8063ZM643.722 48C643.722 54.6643 642.123 60.3971 639.006 65.3033L644.07 68.5207C647.865 62.5469 649.722 55.6717 649.722 48H643.722ZM639.014 65.2897C635.88 70.1648 631.486 74.001 625.734 76.7882L628.35 82.1878C635.014 78.959 640.284 74.4112 644.062 68.5343L639.014 65.2897ZM625.723 76.7936C620.063 79.5646 613.362 81 605.538 81V87C614.098 87 621.733 85.4274 628.361 82.1824L625.723 76.7936ZM605.538 81H572.994V87H605.538V81ZM575.994 84V12H569.994V84H575.994ZM572.994 15H605.538V8.99999H572.994V15ZM587.742 77.4187L580.734 70.6987L576.582 75.0293L583.59 81.7493L587.742 77.4187ZM578.658 75.864H606.402V69.864H578.658V75.864ZM606.402 75.864C612.279 75.864 617.555 74.7695 622.144 72.4753L619.46 67.1087C615.857 68.9105 611.533 69.864 606.402 69.864V75.864ZM622.16 72.467C626.781 70.1209 630.418 66.8357 632.971 62.606L627.833 59.506C625.906 62.7003 623.143 65.2391 619.444 67.117L622.16 72.467ZM632.963 62.6186C635.586 58.3196 636.858 53.4146 636.858 48H630.858C630.858 52.4414 629.826 56.2403 627.841 59.4934L632.963 62.6186ZM636.858 48C636.858 42.5305 635.59 37.6138 632.951 33.3619L627.853 36.5261C629.822 39.6982 630.858 43.4855 630.858 48H636.858ZM632.971 33.394C630.413 29.1558 626.765 25.8957 622.127 23.6125L619.477 28.9955C623.159 30.8083 625.911 33.3082 627.833 36.494L632.971 33.394ZM622.177 23.6376C617.581 21.2676 612.292 20.136 606.402 20.136V26.136C611.52 26.136 615.831 27.1164 619.427 28.9704L622.177 23.6376ZM606.402 20.136H578.658V26.136H606.402V20.136ZM580.734 25.3013L587.742 18.5813L583.59 14.2506L576.582 20.9707L580.734 25.3013ZM582.666 16.416V79.584H588.666V16.416H582.666ZM716.864 42.72H719.864V39.72H716.864V42.72ZM716.864 53.28V56.28H719.864V53.28H716.864ZM666.56 53.28H663.56V56.28H666.56V53.28ZM666.56 42.72V39.72H663.56V42.72H666.56ZM674.912 48L677.875 48.4688L677.95 48L677.875 47.5312L674.912 48ZM669.824 80.16L667.54 82.1047L671.768 87.0712L672.787 80.6288L669.824 80.16ZM663.776 73.056V70.056H657.282L661.492 75.0007L663.776 73.056ZM719.648 73.056H722.648V70.056H719.648V73.056ZM719.648 84V87H722.648V84H719.648ZM656.864 84L653.902 83.526L653.346 87H656.864V84ZM662.624 48L665.587 48.474L665.662 48L665.587 47.526L662.624 48ZM656.864 12V8.99999H653.346L653.902 12.474L656.864 12ZM719.168 12H722.168V8.99999H719.168V12ZM719.168 22.944V25.944H722.168V22.944H719.168ZM663.776 22.944L661.492 20.9993L657.282 25.944H663.776V22.944ZM669.824 15.84L672.787 15.3712L671.768 8.92881L667.54 13.8953L669.824 15.84ZM713.864 42.72V53.28H719.864V42.72H713.864ZM716.864 50.28H666.56V56.28H716.864V50.28ZM669.56 53.28V42.72H663.56V53.28H669.56ZM666.56 45.72H716.864V39.72H666.56V45.72ZM671.949 47.5312L666.861 79.6912L672.787 80.6288L677.875 48.4688L671.949 47.5312ZM672.109 78.2153L666.061 71.1113L661.492 75.0007L667.54 82.1047L672.109 78.2153ZM663.776 76.056H719.648V70.056H663.776V76.056ZM716.648 73.056V84H722.648V73.056H716.648ZM719.648 81H656.864V87H719.648V81ZM659.827 84.474L665.587 48.474L659.662 47.526L653.902 83.526L659.827 84.474ZM665.587 47.526L659.827 11.526L653.902 12.474L659.662 48.474L665.587 47.526ZM656.864 15H719.168V8.99999H656.864V15ZM716.168 12V22.944H722.168V12H716.168ZM719.168 19.944H663.776V25.944H719.168V19.944ZM666.061 24.8887L672.109 17.7847L667.54 13.8953L661.492 20.9993L666.061 24.8887ZM666.861 16.3088L671.949 48.4688L677.875 47.5312L672.787 15.3712L666.861 16.3088ZM729.404 60.576V57.576H726.244L726.408 60.7316L729.404 60.576ZM742.268 60.576L745.242 60.1795L744.895 57.576H742.268V60.576ZM745.82 68.16L743.603 70.1813L743.619 70.1988L743.636 70.2161L745.82 68.16ZM753.884 73.248L752.855 76.0658L752.879 76.0746L752.903 76.083L753.884 73.248ZM780.764 72L782.16 74.6557L782.177 74.6465L782.195 74.6371L780.764 72ZM783.164 57.408L784.794 54.8893L784.794 54.8893L783.164 57.408ZM771.356 54.24L770.971 57.2151L770.979 57.2163L770.988 57.2173L771.356 54.24ZM755.804 52.224L755.411 55.1981L755.419 55.1991L755.804 52.224ZM736.796 45.792L734.894 48.1122L734.915 48.1291L734.936 48.1457L736.796 45.792ZM734.876 20.832L732.56 18.9249L732.556 18.9298L734.876 20.832ZM746.204 13.344L747.209 16.1709L747.225 16.1651L747.241 16.159L746.204 13.344ZM780.476 13.536L779.399 16.336L779.399 16.336L780.476 13.536ZM792.38 21.6L790.096 23.5454L790.116 23.5681L790.136 23.5905L792.38 21.6ZM797.276 33.6V36.6H800.448L800.272 33.4336L797.276 33.6ZM784.412 33.6L781.435 33.9721L781.764 36.6H784.412V33.6ZM781.148 26.976L778.99 29.0598L779.008 29.0787L779.027 29.0973L781.148 26.976ZM773.852 22.656L772.851 25.4839L772.877 25.4932L772.904 25.502L773.852 22.656ZM748.892 23.904L747.456 21.2703L747.456 21.2703L748.892 23.904ZM746.684 37.728L744.985 40.2001L745.029 40.2303L745.074 40.259L746.684 37.728ZM757.628 40.8L758.045 37.829L758.032 37.8273L757.628 40.8ZM773.372 43.008L772.956 45.9789L772.96 45.9796L773.372 43.008ZM788.636 46.656L787.489 49.428L787.518 49.4399L787.547 49.4511L788.636 46.656ZM796.7 52.704L794.156 54.294L794.165 54.3085L794.175 54.323L796.7 52.704ZM794.876 74.496L792.551 72.601L792.551 72.601L794.876 74.496ZM782.972 82.56L784.006 85.3762L784.016 85.3727L784.026 85.369L782.972 82.56ZM746.876 82.272L745.756 85.0551L745.777 85.0633L745.797 85.0712L746.876 82.272ZM734.396 73.536L732.085 75.4487L732.085 75.4487L734.396 73.536ZM729.404 63.576H742.268V57.576H729.404V63.576ZM739.295 60.9725C739.761 64.4672 741.213 67.56 743.603 70.1813L748.037 66.1387C746.459 64.408 745.544 62.4448 745.242 60.1795L739.295 60.9725ZM743.636 70.2161C746.058 72.7902 749.169 74.719 752.855 76.0658L754.914 70.4302C751.944 69.345 749.678 67.8818 748.005 66.1039L743.636 70.2161ZM752.903 76.083C756.611 77.3665 760.794 77.976 765.404 77.976V71.976C761.311 71.976 757.814 71.4335 754.866 70.413L752.903 76.083ZM765.404 77.976C772.125 77.976 777.788 76.9527 782.16 74.6557L779.369 69.3443C776.188 71.0153 771.611 71.976 765.404 71.976V77.976ZM782.195 74.6371C786.66 72.215 789.428 68.5837 789.428 63.744H783.428C783.428 65.8163 782.42 67.689 779.334 69.3629L782.195 74.6371ZM789.428 63.744C789.428 60.0152 787.909 56.9047 784.794 54.8893L781.534 59.9267C782.772 60.7273 783.428 61.8408 783.428 63.744H789.428ZM784.794 54.8893C781.996 53.0787 777.452 51.9705 771.724 51.2627L770.988 57.2173C776.653 57.9174 779.981 58.9213 781.534 59.9267L784.794 54.8893ZM771.742 51.2649L756.19 49.2489L755.419 55.1991L770.971 57.2151L771.742 51.2649ZM756.198 49.2499C747.685 48.1233 741.992 46.0748 738.656 43.4383L734.936 48.1457C739.536 51.7812 746.515 54.0207 755.411 55.1981L756.198 49.2499ZM738.698 43.4718C735.601 40.933 733.94 37.3359 733.94 32.256H727.94C727.94 38.8241 730.184 44.251 734.894 48.1122L738.698 43.4718ZM733.94 32.256C733.94 28.4835 735.043 25.3603 737.196 22.7342L732.556 18.9298C729.462 22.7036 727.94 27.1965 727.94 32.256H733.94ZM737.192 22.7391C739.465 19.9787 742.744 17.757 747.209 16.1709L745.2 10.5171C739.937 12.387 735.663 15.1573 732.56 18.9249L737.192 22.7391ZM747.241 16.159C751.7 14.5165 757.03 13.656 763.292 13.656V7.65599C756.498 7.65599 750.437 8.58752 745.167 10.529L747.241 16.159ZM763.292 13.656C769.463 13.656 774.814 14.5726 779.399 16.336L781.553 10.736C776.154 8.65938 770.05 7.65599 763.292 7.65599V13.656ZM779.399 16.336C784.007 18.1084 787.531 20.5332 790.096 23.5454L794.664 19.6546C791.342 15.7548 786.929 12.8036 781.553 10.736L779.399 16.336ZM790.136 23.5905C792.686 26.4667 794.062 29.8205 794.281 33.7664L800.272 33.4336C799.979 28.1635 798.09 23.5173 794.625 19.6095L790.136 23.5905ZM797.276 30.6H784.412V36.6H797.276V30.6ZM787.389 33.2279C786.985 29.9936 785.588 27.1735 783.27 24.8547L779.027 29.0973C780.42 30.4905 781.2 32.0864 781.435 33.9721L787.389 33.2279ZM783.306 24.8922C781.104 22.6108 778.217 20.9487 774.801 19.8099L772.904 25.502C775.631 26.4113 777.609 27.6292 778.99 29.0598L783.306 24.8922ZM774.854 19.8281C771.385 18.5996 767.416 18.024 763.004 18.024V24.024C766.913 24.024 770.175 24.5363 772.851 25.4839L774.854 19.8281ZM763.004 18.024C756.833 18.024 751.575 19.0235 747.456 21.2703L750.329 26.5377C753.25 24.9445 757.4 24.024 763.004 24.024V18.024ZM747.456 21.2703C743.207 23.5877 740.612 27.1059 740.612 31.776H746.612C746.612 29.7901 747.537 28.0603 750.329 26.5377L747.456 21.2703ZM740.612 31.776C740.612 35.2884 742.094 38.2127 744.985 40.2001L748.384 35.2559C747.179 34.4273 746.612 33.3836 746.612 31.776H740.612ZM745.074 40.259C747.771 41.9754 751.979 43.0604 757.225 43.7727L758.032 37.8273C752.909 37.1316 749.822 36.1686 748.295 35.197L745.074 40.259ZM757.212 43.7709L772.956 45.9789L773.789 40.0371L758.045 37.8291L757.212 43.7709ZM772.96 45.9796C779.308 46.8594 784.113 48.0309 787.489 49.428L789.783 43.8839C785.736 42.2091 780.365 40.9486 773.784 40.0364L772.96 45.9796ZM787.547 49.4511C790.925 50.768 792.999 52.4423 794.156 54.294L799.244 51.114C797.202 47.8457 793.9 45.488 789.726 43.8609L787.547 49.4511ZM794.175 54.323C795.376 56.1979 796.1 58.8166 796.1 62.4H802.1C802.1 58.0474 801.224 54.2021 799.226 51.085L794.175 54.323ZM796.1 62.4C796.1 66.3428 794.915 69.6995 792.551 72.601L797.202 76.391C800.47 72.3805 802.1 67.6732 802.1 62.4H796.1ZM792.551 72.601C790.139 75.5611 786.653 77.9755 781.919 79.751L784.026 85.369C789.531 83.3045 793.982 80.3429 797.202 76.391L792.551 72.601ZM781.938 79.7438C777.287 81.4513 771.731 82.344 765.212 82.344V88.344C772.261 88.344 778.546 87.3807 784.006 85.3762L781.938 79.7438ZM765.212 82.344C758.593 82.344 752.858 81.363 747.955 79.4728L745.797 85.0712C751.518 87.277 758.008 88.344 765.212 88.344V82.344ZM747.996 79.4889C743.131 77.5308 739.41 74.8886 736.707 71.6233L732.085 75.4487C735.527 79.6074 740.126 82.7892 745.756 85.0551L747.996 79.4889ZM736.707 71.6233C734.057 68.4209 732.624 64.721 732.4 60.4204L726.408 60.7316C726.697 66.287 728.591 71.2271 732.085 75.4487L736.707 71.6233ZM811.843 12V8.99999H808.843V12H811.843ZM824.515 12H827.515V8.99999H824.515V12ZM824.515 84V87H827.515V84H824.515ZM811.843 84H808.843V87H811.843V84ZM811.843 15H824.515V8.99999H811.843V15ZM821.515 12V84H827.515V12H821.515ZM824.515 81H811.843V87H824.515V81ZM814.843 84V12H808.843V84H814.843ZM913.68 52.704L916.68 52.7469L916.716 50.2183L914.23 49.7548L913.68 52.704ZM911.088 65.376L913.848 66.5523L913.851 66.5442L913.855 66.5362L911.088 65.376ZM903.984 75.744L901.885 73.6005L901.885 73.6005L903.984 75.744ZM892.752 82.848L893.823 85.6502L893.834 85.646L893.845 85.6417L892.752 82.848ZM861.936 82.752L860.932 85.5789L860.932 85.5789L861.936 82.752ZM849.168 75.36L847.148 77.578L847.169 77.5968L847.19 77.6153L849.168 75.36ZM840.816 32.448L838.075 31.2296L838.067 31.2456L838.061 31.2616L840.816 32.448ZM849.36 20.736L851.338 22.9913L851.349 22.9816L851.36 22.9717L849.36 20.736ZM862.224 13.248L863.217 16.079L863.217 16.079L862.224 13.248ZM897.744 14.304L896.532 17.0481L896.551 17.0565L896.57 17.0647L897.744 14.304ZM911.184 24.096L908.859 25.9918L908.859 25.9918L911.184 24.096ZM917.424 38.4V41.4H920.883L920.394 37.9757L917.424 38.4ZM904.56 38.4L901.623 39.0096L902.119 41.4H904.56V38.4ZM899.952 29.568L897.748 31.6028L897.762 31.6179L897.776 31.6328L899.952 29.568ZM891.024 23.808L892.061 20.993L892.061 20.993L891.024 23.808ZM863.664 24.96L865.006 27.6433L865.014 27.6392L865.022 27.635L863.664 24.96ZM854.064 33.888L851.48 32.3632L851.471 32.3791L851.462 32.395L854.064 33.888ZM854.16 62.208L851.566 63.7144L851.575 63.7299L851.584 63.7454L854.16 62.208ZM864.144 71.328L862.818 74.0193L862.818 74.0193L864.144 71.328ZM894.096 71.616L895.337 74.3471L895.337 74.3471L894.096 71.616ZM904.08 63.648L906.518 65.3961L906.526 65.3853L906.533 65.3745L904.08 63.648ZM908.016 51.648L908.566 48.6988L905.165 48.0647L905.019 51.5214L908.016 51.648ZM881.808 58.176H878.808V61.176H881.808V58.176ZM881.808 48.576V45.576H878.808V48.576H881.808ZM918.192 48.576H921.192V45.576H918.192V48.576ZM918.192 84V87H921.192V84H918.192ZM908.784 84L905.788 84.1541L905.934 87H908.784V84ZM907.248 54.144L909.662 52.3624L903.74 44.3389L904.252 54.2981L907.248 54.144ZM910.224 58.176V61.176H916.167L912.638 56.3944L910.224 58.176ZM910.68 52.6611C910.622 56.7733 909.831 60.6165 908.321 64.2158L913.855 66.5362C915.673 62.1995 916.61 57.5946 916.68 52.7469L910.68 52.6611ZM908.328 64.1997C906.821 67.7361 904.679 70.8646 901.885 73.6005L906.083 77.8875C909.433 74.6074 912.027 70.8239 913.848 66.5523L908.328 64.1997ZM901.885 73.6005C899.13 76.2986 895.738 78.458 891.659 80.0543L893.845 85.6417C898.598 83.782 902.694 81.2054 906.083 77.8875L901.885 73.6005ZM891.681 80.0458C887.734 81.5549 883.116 82.344 877.776 82.344V88.344C883.7 88.344 889.066 87.4691 893.823 85.6502L891.681 80.0458ZM877.776 82.344C872.387 82.344 867.45 81.5273 862.94 79.9251L860.932 85.5789C866.15 87.4327 871.773 88.344 877.776 88.344V82.344ZM862.94 79.9251C858.411 78.3161 854.491 76.0386 851.146 73.1047L847.19 77.6153C851.141 81.0814 855.733 83.7319 860.932 85.5789L862.94 79.9251ZM851.188 73.142C847.931 70.1757 845.393 66.5954 843.571 62.3656L838.061 64.7384C840.207 69.7246 843.237 74.0163 847.148 77.578L851.188 73.142ZM843.571 62.3656C841.771 58.1838 840.84 53.4121 840.84 48H834.84C834.84 54.1079 835.893 59.7042 838.061 64.7384L843.571 62.3656ZM840.84 48C840.84 42.5879 841.771 37.8162 843.571 33.6344L838.061 31.2616C835.893 36.2958 834.84 41.8921 834.84 48H840.84ZM843.557 33.6664C845.436 29.4392 848.03 25.8937 851.338 22.9913L847.382 18.4807C843.394 21.9783 840.292 26.2407 838.075 31.2296L843.557 33.6664ZM851.36 22.9717C854.696 19.9876 858.635 17.6855 863.217 16.079L861.231 10.417C855.957 12.2665 851.32 14.9564 847.36 18.5003L851.36 22.9717ZM863.217 16.079C867.788 14.4761 872.855 13.656 878.448 13.656V7.65599C872.265 7.65599 866.516 8.56385 861.231 10.417L863.217 16.079ZM878.448 13.656C885.481 13.656 891.485 14.8181 896.532 17.0481L898.957 11.5599C892.995 8.92593 886.135 7.65599 878.448 7.65599V13.656ZM896.57 17.0647C901.747 19.2667 905.812 22.2551 908.859 25.9918L913.509 22.2002C909.772 17.6169 904.877 14.0773 898.918 11.5433L896.57 17.0647ZM908.859 25.9918C911.902 29.7238 913.762 33.9816 914.454 38.8243L920.394 37.9757C919.55 32.0664 917.25 26.7882 913.509 22.2002L908.859 25.9918ZM917.424 35.4H904.56V41.4H917.424V35.4ZM907.497 37.7903C906.681 33.856 904.883 30.407 902.128 27.5032L897.776 31.6328C899.757 33.721 901.031 36.16 901.623 39.0096L907.497 37.7903ZM902.156 27.5332C899.487 24.6411 896.09 22.4772 892.061 20.993L889.987 26.623C893.254 27.8268 895.809 29.5029 897.748 31.6028L902.156 27.5332ZM892.061 20.993C888.013 19.5017 883.426 18.792 878.352 18.792V24.792C882.878 24.792 886.739 25.4263 889.987 26.623L892.061 20.993ZM878.352 18.792C872.345 18.792 866.965 19.9195 862.306 22.285L865.022 27.635C868.683 25.7765 873.095 24.792 878.352 24.792V18.792ZM862.322 22.2767C857.715 24.5804 854.081 27.9561 851.48 32.3632L856.648 35.4128C858.655 32.0119 861.421 29.4356 865.006 27.6433L862.322 22.2767ZM851.462 32.395C848.909 36.8445 847.704 42.0882 847.704 48H853.704C853.704 42.9038 854.739 38.7395 856.666 35.381L851.462 32.395ZM847.704 48C847.704 53.9274 848.947 59.2053 851.566 63.7144L856.754 60.7016C854.765 57.2747 853.704 53.0806 853.704 48H847.704ZM851.584 63.7454C854.259 68.2284 858.03 71.6607 862.818 74.0193L865.47 68.6367C861.682 66.7713 858.797 64.1236 856.736 60.6706L851.584 63.7454ZM862.818 74.0193C867.599 76.3739 873.127 77.496 879.312 77.496V71.496C873.849 71.496 869.265 70.5061 865.47 68.6367L862.818 74.0193ZM879.312 77.496C885.283 77.496 890.649 76.478 895.337 74.3471L892.855 68.8849C889.095 70.594 884.606 71.496 879.312 71.496V77.496ZM895.337 74.3471C899.985 72.2346 903.747 69.2611 906.518 65.3961L901.642 61.8999C899.549 64.8189 896.655 67.1574 892.855 68.8849L895.337 74.3471ZM906.533 65.3745C909.322 61.4123 910.799 56.8473 911.013 51.7746L905.019 51.5214C904.849 55.5367 903.702 58.9717 901.627 61.9215L906.533 65.3745ZM907.466 54.5972L913.13 55.6532L914.23 49.7548L908.566 48.6988L907.466 54.5972ZM884.808 58.176V48.576H878.808V58.176H884.808ZM881.808 51.576H918.192V45.576H881.808V51.576ZM915.192 48.576V84H921.192V48.576H915.192ZM918.192 81H908.784V87H918.192V81ZM911.78 83.8459L910.244 53.9899L904.252 54.2981L905.788 84.1541L911.78 83.8459ZM904.834 55.9256L907.81 59.9576L912.638 56.3944L909.662 52.3624L904.834 55.9256ZM910.224 55.176H881.808V61.176H910.224V55.176ZM1000.11 76.32L1000.44 79.3017L1005.78 78.7084L1002.47 74.474L1000.11 76.32ZM994.924 76.896H991.924V80.2478L995.255 79.8777L994.924 76.896ZM994.924 12V8.99999H991.924V12H994.924ZM1007.21 12H1010.21V8.99999H1007.21V12ZM1007.21 84V87H1010.21V84H1007.21ZM991.084 84L988.716 85.8423L989.617 87H991.084V84ZM940.588 19.104L940.25 16.123L934.935 16.7247L938.22 20.9463L940.588 19.104ZM945.676 18.528H948.676V15.1692L945.338 15.547L945.676 18.528ZM945.676 84V87H948.676V84H945.676ZM933.388 84H930.388V87H933.388V84ZM933.388 12V8.99999H930.388V12H933.388ZM949.9 12L952.265 10.154L951.364 8.99999H949.9V12ZM999.776 73.3383L994.592 73.9143L995.255 79.8777L1000.44 79.3017L999.776 73.3383ZM997.924 76.896V12H991.924V76.896H997.924ZM994.924 15H1007.21V8.99999H994.924V15ZM1004.21 12V84H1010.21V12H1004.21ZM1007.21 81H991.084V87H1007.21V81ZM993.451 82.1577L942.955 17.2617L938.22 20.9463L988.716 85.8423L993.451 82.1577ZM940.925 22.085L946.013 21.509L945.338 15.547L940.25 16.123L940.925 22.085ZM942.676 18.528V84H948.676V18.528H942.676ZM945.676 81H933.388V87H945.676V81ZM936.388 84V12H930.388V84H936.388ZM933.388 15H949.9V8.99999H933.388V15ZM947.535 13.846L997.743 78.166L1002.47 74.474L952.265 10.154L947.535 13.846ZM1081.76 42.72H1084.76V39.72H1081.76V42.72ZM1081.76 53.28V56.28H1084.76V53.28H1081.76ZM1031.45 53.28H1028.45V56.28H1031.45V53.28ZM1031.45 42.72V39.72H1028.45V42.72H1031.45ZM1039.81 48L1042.77 48.4688L1042.84 48L1042.77 47.5312L1039.81 48ZM1034.72 80.16L1032.43 82.1047L1036.66 87.0712L1037.68 80.6288L1034.72 80.16ZM1028.67 73.056V70.056H1022.18L1026.39 75.0007L1028.67 73.056ZM1084.54 73.056H1087.54V70.056H1084.54V73.056ZM1084.54 84V87H1087.54V84H1084.54ZM1021.76 84L1018.8 83.526L1018.24 87H1021.76V84ZM1027.52 48L1030.48 48.474L1030.56 48L1030.48 47.526L1027.52 48ZM1021.76 12V8.99999H1018.24L1018.8 12.474L1021.76 12ZM1084.06 12H1087.06V8.99999H1084.06V12ZM1084.06 22.944V25.944H1087.06V22.944H1084.06ZM1028.67 22.944L1026.39 20.9993L1022.18 25.944H1028.67V22.944ZM1034.72 15.84L1037.68 15.3712L1036.66 8.92881L1032.43 13.8953L1034.72 15.84ZM1078.76 42.72V53.28H1084.76V42.72H1078.76ZM1081.76 50.28H1031.45V56.28H1081.76V50.28ZM1034.45 53.28V42.72H1028.45V53.28H1034.45ZM1031.45 45.72H1081.76V39.72H1031.45V45.72ZM1036.84 47.5312L1031.75 79.6912L1037.68 80.6288L1042.77 48.4688L1036.84 47.5312ZM1037 78.2153L1030.95 71.1113L1026.39 75.0007L1032.43 82.1047L1037 78.2153ZM1028.67 76.056H1084.54V70.056H1028.67V76.056ZM1081.54 73.056V84H1087.54V73.056H1081.54ZM1084.54 81H1021.76V87H1084.54V81ZM1024.72 84.474L1030.48 48.474L1024.56 47.526L1018.8 83.526L1024.72 84.474ZM1030.48 47.526L1024.72 11.526L1018.8 12.474L1024.56 48.474L1030.48 47.526ZM1021.76 15H1084.06V8.99999H1021.76V15ZM1081.06 12V22.944H1087.06V12H1081.06ZM1084.06 19.944H1028.67V25.944H1084.06V19.944ZM1030.95 24.8887L1037 17.7847L1032.43 13.8953L1026.39 20.9993L1030.95 24.8887ZM1031.75 16.3088L1036.84 48.4688L1042.77 47.5312L1037.68 15.3712L1031.75 16.3088ZM1107.55 44.448V41.448H1104.55V44.448H1107.55ZM1146.81 41.568L1144.98 39.1901L1144.97 39.2016L1144.95 39.2133L1146.81 41.568ZM1146.81 25.824L1144.95 28.1786L1144.99 28.2055L1145.02 28.2314L1146.81 25.824ZM1105.72 22.944L1103.38 21.0738L1099.49 25.944H1105.72V22.944ZM1111.39 15.84H1114.39V7.26501L1109.04 13.9698L1111.39 15.84ZM1111.39 84V87H1114.39V84H1111.39ZM1098.71 84H1095.71V87H1098.71V84ZM1098.71 12V8.99999H1095.71V12H1098.71ZM1151.23 14.784L1149.9 17.4763L1149.93 17.4897L1149.96 17.5025L1151.23 14.784ZM1160.15 22.368L1157.64 23.9978L1157.65 24.0266L1157.67 24.0549L1160.15 22.368ZM1160.15 44.928L1157.66 43.2639L1157.65 43.2755L1160.15 44.928ZM1151.23 52.512L1152.51 55.2223L1152.52 55.2177L1152.53 55.213L1151.23 52.512ZM1107.55 55.2H1104.55V58.2H1107.55V55.2ZM1121.75 50.304V47.304H1115.31L1119.46 52.2342L1121.75 50.304ZM1136.63 50.304L1138.92 48.3624L1138.02 47.304H1136.63V50.304ZM1165.24 84V87H1171.72L1167.53 82.0584L1165.24 84ZM1150.07 84L1147.78 85.9302L1148.68 87H1150.07V84ZM1107.55 47.448H1136.83V41.448H1107.55V47.448ZM1136.83 47.448C1141.48 47.448 1145.54 46.3897 1148.67 43.9226L1144.95 39.2133C1143.21 40.5863 1140.62 41.448 1136.83 41.448V47.448ZM1148.64 43.9459C1151.92 41.4215 1153.55 37.8939 1153.55 33.696H1147.55C1147.55 36.1541 1146.69 37.8745 1144.98 39.1901L1148.64 43.9459ZM1153.55 33.696C1153.55 29.4549 1151.93 25.8955 1148.6 23.4166L1145.02 28.2314C1146.68 29.4645 1147.55 31.1531 1147.55 33.696H1153.55ZM1148.67 23.4694C1145.54 21.0023 1141.48 19.944 1136.83 19.944V25.944C1140.62 25.944 1143.21 26.8057 1144.95 28.1786L1148.67 23.4694ZM1136.83 19.944H1105.72V25.944H1136.83V19.944ZM1108.07 24.8142L1113.73 17.7102L1109.04 13.9698L1103.38 21.0738L1108.07 24.8142ZM1108.39 15.84V84H1114.39V15.84H1108.39ZM1111.39 81H1098.71V87H1111.39V81ZM1101.71 84V12H1095.71V84H1101.71ZM1098.71 15H1137.98V8.99999H1098.71V15ZM1137.98 15C1142.67 15 1146.61 15.8595 1149.9 17.4763L1152.55 12.0917C1148.29 9.99644 1143.4 8.99999 1137.98 8.99999V15ZM1149.96 17.5025C1153.33 19.0785 1155.86 21.2492 1157.64 23.9978L1162.67 20.7382C1160.23 16.9588 1156.8 14.0735 1152.49 12.0654L1149.96 17.5025ZM1157.67 24.0549C1159.47 26.6968 1160.42 29.8679 1160.42 33.696H1166.42C1166.42 28.8201 1165.19 24.4392 1162.63 20.6811L1157.67 24.0549ZM1160.42 33.696C1160.42 37.3754 1159.48 40.5309 1157.66 43.2639L1162.65 46.5921C1165.18 42.7971 1166.42 38.4646 1166.42 33.696H1160.42ZM1157.65 43.2755C1155.87 45.9751 1153.33 48.163 1149.92 49.811L1152.53 55.213C1156.8 53.149 1160.22 50.2809 1162.66 46.5805L1157.65 43.2755ZM1149.94 49.8017C1146.64 51.3672 1142.68 52.2 1137.98 52.2V58.2C1143.39 58.2 1148.26 57.2408 1152.51 55.2223L1149.94 49.8017ZM1137.98 52.2H1107.55V58.2H1137.98V52.2ZM1110.55 55.2V44.448H1104.55V55.2H1110.55ZM1121.75 53.304H1136.63V47.304H1121.75V53.304ZM1134.35 52.2456L1162.96 85.9416L1167.53 82.0584L1138.92 48.3624L1134.35 52.2456ZM1165.24 81H1150.07V87H1165.24V81ZM1152.37 82.0698L1124.05 48.3738L1119.46 52.2342L1147.78 85.9302L1152.37 82.0698Z" fill="black" mask="url(#path-1-outside-1_2002_3)"/>
</svg>
