<svg width="66" height="67" viewBox="0 0 66 67" fill="none" xmlns="http://www.w3.org/2000/svg">
<path d="M41.0099 24.049C39.3527 23.3839 39.2738 23.1361 36.4066 22.7319L29.4226 21.7668C27.1209 21.4539 25.5163 20.9975 24.5956 20.3976C23.675 19.7977 23.2146 18.924 23.2146 17.8025C23.2146 16.3419 23.9906 15.1813 25.5558 14.3467C27.1209 13.4991 29.199 13.0818 31.8164 13.0818C33.6577 13.0818 35.2623 13.3165 36.6302 13.7729C37.998 14.2424 39.0765 14.8814 39.892 15.6899C40.6943 16.5115 41.1809 17.4765 41.3124 18.598H47.0206C46.9023 16.5767 46.192 14.8032 44.8768 13.3035C43.5615 11.8038 41.7859 10.6302 39.5763 9.78252C37.3667 8.93488 34.8283 8.51758 31.961 8.51758C29.0938 8.51758 26.5422 8.9088 24.3852 9.67819C22.2282 10.4476 20.5578 11.543 19.3872 12.9644C18.2035 14.3859 17.6248 16.0681 17.6248 18.0111C17.6248 20.5671 18.4929 22.5493 20.2422 23.9446C21.9914 25.34 24.7929 26.2919 28.6466 26.7875L35.5385 27.6742L37.5114 27.8047M36.7485 34.8075C38.4189 33.9207 38.6293 33.6208 38.8792 32.1211L36.7485 34.8075Z" fill="#1D1D1B"/>
<path d="M23.3729 55.8416H18.3487V33.1118H23.9648V48.0433M34.8814 42.0186L38.5115 37.663L50.1909 55.8416H43.7593L34.8814 42.0186Z" fill="#1D1D1B"/>
<path d="M23.8865 48.0437L40.2614 29.0957L41.4451 34.651L23.2947 55.842" fill="#1D1D1B"/>
<path d="M33 65.192C50.6731 65.192 65 50.9869 65 33.4642C65 15.9414 50.6731 1.73633 33 1.73633C15.3269 1.73633 1 15.9414 1 33.4642C1 50.9869 15.3269 65.192 33 65.192Z" stroke="#1D1D1B" stroke-width="2" stroke-miterlimit="10"/>
<path d="M39.0492 28.0265C39.4044 28.1699 40.0225 29.0828 39.6542 29.6957C39.3254 30.2434 39.2334 30.2173 39.2334 30.439C39.2334 30.6868 40.062 30.3999 40.1146 30.6476C40.4171 32.0691 40.6801 33.7122 40.9826 35.1336C42.0612 34.0121 42.9292 33.0602 43.8499 31.8865C44.9547 30.4781 44.9678 29.161 44.6259 27.4136C44.5864 27.231 44.3628 26.6703 44.0209 26.1747C43.8236 25.8748 43.4159 25.4444 43.4159 25.4444C43.4159 25.4444 42.9424 25.0011 41.4298 24.2056C41.2589 24.1143 40.0883 23.6579 39.9041 23.5927C39.6411 23.5144 40.4697 24.1404 40.2987 24.3229C39.549 25.0793 38.7993 25.8357 38.0496 26.6051C37.7997 26.8528 36.8265 27.7657 37.3131 27.8048C38.2338 27.87 38.7073 27.9091 39.0361 28.0395L39.0492 28.0265Z" fill="#1D1D1B"/>
<path d="M38.3407 28.2738C38.972 28.4824 39.3403 29.4866 38.972 30.0995C38.6432 30.6472 38.196 31.4426 37.42 32.3816C37.2622 32.5772 38.8536 30.7124 38.9062 30.9601C39.2087 32.3816 39.4718 34.0247 39.7743 35.4461C40.8528 34.3246 41.7208 33.3727 42.6415 32.199C43.7463 30.7906 43.7595 29.4735 43.4175 27.7261C43.3781 27.5435 43.1545 26.9828 42.8125 26.4872C42.6152 26.1873 42.2075 25.7569 42.2075 25.7569C42.2075 25.7569 41.734 25.3136 40.2215 24.5181C40.0505 24.4268 38.8799 23.9704 38.6958 23.9052C38.4327 23.8269 39.2613 24.4529 39.0904 24.6354C38.3407 25.3918 37.591 26.1482 36.8413 26.9176C36.5914 27.1653 35.4734 27.6869 35.9732 27.7261C36.8939 27.7913 37.5647 28.039 38.3275 28.2999L38.3407 28.2738Z" fill="#1D1D1B"/>
</svg>
