<svg width="1280" height="648" viewBox="0 0 1280 648" fill="none" xmlns="http://www.w3.org/2000/svg">
<path d="M1124.65 557.678H1092.1L1198.99 13.2588H1280L1150.91 634.742H1063.99L934.895 13.2588H1017.01L1124.65 557.678Z" fill="#FE5009"/>
<path d="M638.568 634.742V13.2588H714.765V498.016L694.421 462.384L851.624 13.2588H932.63L707.737 634.742H638.568ZM770.988 338.087L827.211 233.678L936.329 634.742H849.405L770.988 338.087Z" fill="#FE5009"/>
<path d="M377.203 285.054H478.182C490.512 285.054 500.129 278.701 507.034 265.995C513.938 253.29 517.39 235.612 517.39 212.962C517.39 189.76 513.938 172.082 507.034 159.929C500.129 147.223 490.512 140.87 478.182 140.87H366.476L400.876 58.8342V634.742H324.309V13.2588H488.909C510.116 13.2588 528.61 21.8214 544.392 38.9468C560.174 55.5197 572.504 78.7217 581.381 108.553C590.258 137.832 594.697 172.635 594.697 212.962C594.697 252.185 590.258 286.711 581.381 316.543C572.504 346.374 560.174 369.576 544.392 386.149C528.61 402.722 510.116 411.008 488.909 411.008H377.203V285.054ZM418.63 343.888H504.814L604.314 634.742H515.541L418.63 343.888Z" fill="#FE5009"/>
<path d="M0 430.895H78.0465C79.2794 448.02 82.855 462.936 88.7732 475.642C94.6914 488.348 102.582 498.292 112.446 505.473C122.556 512.102 134.393 515.417 147.955 515.417C166.696 515.417 181.492 510.169 192.342 499.673C203.192 488.624 208.617 472.604 208.617 451.611C208.617 435.591 205.535 423.161 199.37 414.322C193.205 405.483 181.369 399.13 163.861 395.263L112.076 384.491C73.8544 376.757 46.1128 357.422 28.8513 326.486C11.5898 294.997 2.95911 252.737 2.95911 199.703C2.95911 156.614 8.50743 120.153 19.6041 90.3223C30.9473 60.4911 46.7293 38.1177 66.9498 23.2021C87.417 7.73402 111.213 0 138.338 0C164.97 0 188.643 8.56266 209.357 25.688C230.071 42.2609 246.469 66.0153 258.552 96.9514C270.882 127.887 277.54 163.795 278.526 204.675H200.849C199.863 189.76 196.657 177.054 191.232 166.558C186.054 155.509 178.903 147.223 169.779 141.698C160.655 135.622 149.682 132.583 136.859 132.583C119.597 132.583 105.911 137.831 95.8011 148.327C85.6908 158.271 80.6357 173.187 80.6357 193.074C80.6357 207.437 83.5948 219.038 89.513 227.877C95.6778 236.716 106.651 242.793 122.433 246.107L177.546 258.537C203.932 264.061 225.015 273.729 240.797 287.54C256.579 300.798 268.046 319.304 275.197 343.059C282.348 366.813 285.924 396.368 285.924 431.724C285.924 475.366 280.129 513.483 268.539 546.077C256.949 578.118 240.674 603.253 219.714 621.483C198.753 639.161 174.341 648 146.476 648C117.871 648 92.5954 639.161 70.6487 621.483C48.9486 603.253 31.9337 577.841 19.6041 545.248C7.27447 512.102 0.739777 473.985 0 430.895Z" fill="#FE5009"/>
</svg>
